<svg width="164" height="164" viewBox="0 0 164 164" fill="none" xmlns="http://www.w3.org/2000/svg">
<path d="M78.9392 2.76483C80.3205 -0.0127556 84.2865 -0.0127553 85.6678 2.76483C86.9247 5.29227 90.4192 5.58156 92.0754 3.29528C93.8955 0.782728 97.8074 1.4349 98.7123 4.40175C99.5357 7.1014 102.935 7.96139 104.945 5.97864C107.154 3.79965 110.905 5.0862 111.309 8.16139C111.677 10.9596 114.888 12.3669 117.197 10.7417C119.735 8.95573 123.223 10.8416 123.115 13.9412C123.016 16.7617 125.952 18.6778 128.497 17.4546C131.295 16.1103 134.425 18.544 133.807 21.5835C133.245 24.3493 135.825 26.722 138.538 25.9341C141.519 25.0682 144.205 27.9834 143.095 30.8799C142.085 33.5156 144.239 36.2801 147.044 35.949C150.127 35.5851 152.296 38.9022 150.724 41.5767C149.294 44.0104 150.963 47.0914 153.784 47.2261C156.885 47.3742 158.478 51.0027 156.487 53.3823C154.675 55.5475 155.814 58.8609 158.575 59.4578C161.609 60.1137 162.583 63.9548 160.227 65.9744C158.083 67.8122 158.66 71.2677 161.285 72.3104C164.17 73.4564 164.497 77.4051 161.841 79.0098C159.423 80.47 159.423 83.9732 161.841 85.4334C164.497 87.0381 164.17 90.9868 161.285 92.1328C158.66 93.1755 158.083 96.631 160.227 98.4687C162.583 100.488 161.609 104.329 158.575 104.985C155.814 105.582 154.675 108.896 156.487 111.061C158.478 113.44 156.885 117.069 153.784 117.217C150.963 117.352 149.294 120.433 150.724 122.866C152.296 125.541 150.127 128.858 147.044 128.494C144.239 128.163 142.085 130.928 143.095 133.563C144.205 136.46 141.519 139.375 138.538 138.509C135.825 137.721 133.245 140.094 133.807 142.86C134.425 145.899 131.295 148.333 128.497 146.989C125.952 145.765 123.016 147.682 123.115 150.502C123.223 153.602 119.735 155.487 117.197 153.701C114.888 152.076 111.677 153.484 111.309 156.282C110.905 159.357 107.154 160.644 104.945 158.465C102.935 156.482 99.5357 157.342 98.7123 160.041C97.8074 163.008 93.8955 163.66 92.0754 161.148C90.4192 158.862 86.9247 159.151 85.6678 161.678C84.2865 164.456 80.3205 164.456 78.9392 161.678C77.6823 159.151 74.1878 158.862 72.5316 161.148C70.7115 163.66 66.7996 163.008 65.8947 160.041C65.0713 157.342 61.6721 156.482 59.6619 158.465C57.4527 160.644 53.7016 159.357 53.2979 156.282C52.9305 153.484 49.7193 152.076 47.4098 153.701C44.8718 155.487 41.3838 153.602 41.4922 150.502C41.5908 147.682 38.6553 145.765 36.1096 146.989C33.3119 148.333 30.1822 145.899 30.7997 142.86C31.3617 140.094 28.7819 137.721 26.0694 138.509C23.0884 139.375 20.4023 136.46 21.5122 133.563C22.5221 130.928 20.3684 128.163 17.5631 128.494C14.4801 128.858 12.3109 125.541 13.8828 122.866C15.3132 120.433 13.6443 117.352 10.8227 117.217C7.72183 117.069 6.12872 113.44 8.11985 111.061C9.93167 108.896 8.79311 105.582 6.03218 104.985C2.99798 104.329 2.02439 100.488 4.3804 98.4687C6.52422 96.631 5.94707 93.1755 3.32213 92.1328C0.437378 90.9868 0.109871 87.0381 2.76648 85.4334C5.18384 83.9732 5.18384 80.47 2.76648 79.0098C0.109871 77.4051 0.437378 73.4564 3.32213 72.3104C5.94707 71.2677 6.52422 67.8122 4.3804 65.9744C2.02439 63.9548 2.99798 60.1137 6.03217 59.4578C8.79311 58.8609 9.93167 55.5475 8.11986 53.3823C6.12872 51.0027 7.72183 47.3742 10.8227 47.2261C13.6443 47.0914 15.3132 44.0104 13.8828 41.5767C12.3109 38.9022 14.4801 35.5851 17.5631 35.949C20.3684 36.2801 22.5221 33.5156 21.5122 30.8799C20.4023 27.9834 23.0884 25.0682 26.0693 25.9341C28.7819 26.722 31.3617 24.3493 30.7997 21.5835C30.1822 18.544 33.3119 16.1103 36.1096 17.4546C38.6553 18.6778 41.5908 16.7617 41.4922 13.9412C41.3838 10.8416 44.8718 8.95573 47.4098 10.7417C49.7193 12.3669 52.9305 10.9596 53.2979 8.16139C53.7016 5.0862 57.4527 3.79965 59.6619 5.97864C61.6721 7.96139 65.0713 7.1014 65.8947 4.40175C66.7996 1.4349 70.7115 0.782728 72.5316 3.29528C74.1878 5.58156 77.6823 5.29226 78.9392 2.76483Z" fill="#B1B000"/>
<path d="M52.8575 93.9205H54.9091L52.9552 88.3245H43.4624L41.5574 93.9205H44.0974V96.7185H36.0864V93.9205H38.2357L45.9211 72.0571H50.7245L58.3936 93.9205H60.8685V96.7185H52.8575V93.9205ZM44.3905 85.6241H52.0108L48.1681 74.5948L44.3905 85.6241Z" fill="white"/>
<path d="M61.9595 71.4064H67.4304V81.2645C68.1469 80.7114 68.9284 80.2721 69.7751 79.9468C70.6218 79.6214 71.4957 79.4588 72.3966 79.4588C73.5038 79.4588 74.5188 79.6648 75.4415 80.0769C76.3642 80.489 77.1566 81.0692 77.8187 81.8175C78.4918 82.5658 79.0128 83.466 79.3819 84.5179C79.7509 85.5591 79.9355 86.714 79.9355 87.9829C79.9355 89.3385 79.7292 90.5694 79.3167 91.6756C78.9042 92.771 78.3289 93.7145 77.5908 94.5062C76.8635 95.2978 75.9951 95.9106 74.9856 96.3444C73.976 96.7673 72.8688 96.9788 71.6639 96.9788C70.8281 96.9788 70.0411 96.8595 69.3029 96.6209C68.5756 96.3715 67.9515 96.0516 67.4304 95.6611V96.7185H64.4019V74.2044H61.9595V71.4064ZM71.5988 82.1266C70.8064 82.1266 70.0465 82.2893 69.3192 82.6146C68.5919 82.94 67.9623 83.3792 67.4304 83.9323V92.9933C67.7778 93.3512 68.288 93.6711 68.961 93.9531C69.634 94.2242 70.4807 94.3597 71.5011 94.3597C72.1958 94.3597 72.8634 94.2296 73.5038 93.9693C74.1443 93.7091 74.7088 93.3186 75.1972 92.7981C75.6857 92.2667 76.0765 91.6105 76.3696 90.8297C76.6627 90.0489 76.8092 89.1379 76.8092 88.0968C76.8092 87.1424 76.6681 86.2965 76.3859 85.5591C76.1145 84.8216 75.74 84.198 75.2624 83.6883C74.7956 83.1786 74.2474 82.7936 73.6178 82.5333C72.9882 82.2622 72.3152 82.1266 71.5988 82.1266Z" fill="white"/>
<path d="M82.8501 88.292C82.8609 86.9581 83.0726 85.7434 83.4851 84.6481C83.9084 83.5527 84.4946 82.6146 85.2436 81.8338C85.9926 81.0421 86.8827 80.4348 87.914 80.0119C88.9452 79.5889 90.0795 79.3774 91.317 79.3774C92.5654 79.3774 93.7051 79.5889 94.7364 80.0119C95.7785 80.4348 96.6686 81.0367 97.4067 81.8175C98.1449 82.5875 98.7202 83.5202 99.1327 84.6155C99.5452 85.7109 99.7514 86.9255 99.7514 88.2595C99.7514 89.5717 99.5452 90.7809 99.1327 91.8871C98.7202 92.9824 98.1449 93.9259 97.4067 94.7176C96.6686 95.5093 95.7785 96.1275 94.7364 96.5721C93.7051 97.0059 92.5654 97.2228 91.317 97.2228C90.047 97.2228 88.8963 97.0059 87.8651 96.5721C86.8339 96.1383 85.9492 95.531 85.211 94.7502C84.4729 93.9585 83.8976 93.015 83.4851 91.9196C83.0726 90.8243 82.8609 89.6151 82.8501 88.292ZM86.0577 88.292C86.0577 89.2572 86.1934 90.1302 86.4648 90.911C86.747 91.6919 87.127 92.3589 87.6046 92.9119C88.0931 93.4542 88.6521 93.8771 89.2817 94.1808C89.9221 94.4736 90.6006 94.62 91.317 94.62C92.066 94.62 92.7607 94.4736 93.4012 94.1808C94.0525 93.888 94.617 93.4705 95.0946 92.9282C95.5722 92.3751 95.9467 91.7082 96.2181 90.9273C96.4895 90.1465 96.6252 89.268 96.6252 88.292C96.6252 87.2726 96.4895 86.367 96.2181 85.5753C95.9467 84.7836 95.5722 84.1221 95.0946 83.5907C94.6278 83.0593 94.0688 82.658 93.4175 82.3869C92.7662 82.1158 92.066 81.9802 91.317 81.9802C90.6006 81.9802 89.9221 82.1158 89.2817 82.3869C88.6521 82.658 88.0931 83.0593 87.6046 83.5907C87.127 84.1221 86.747 84.7836 86.4648 85.5753C86.1934 86.367 86.0577 87.2726 86.0577 88.292Z" fill="white"/>
<path d="M113.201 79.8654H118.639V93.9205H120.512V96.7185H115.594V95.1569C114.835 95.7425 114.004 96.198 113.103 96.5233C112.213 96.8487 111.258 97.0113 110.237 97.0113C109.391 97.0113 108.62 96.892 107.925 96.6535C107.241 96.404 106.655 96.0245 106.167 95.5147C105.689 94.9942 105.32 94.3381 105.06 93.5464C104.799 92.7547 104.669 91.8112 104.669 90.7158V82.6635H102.389V79.8654H107.828V90.358C107.828 91.6485 108.126 92.6246 108.723 93.2861C109.32 93.9476 110.178 94.2784 111.296 94.2784C111.958 94.2784 112.653 94.1591 113.38 93.9205C114.118 93.6819 114.813 93.3512 115.464 92.9282V82.6635H113.201V79.8654Z" fill="white"/>
<path d="M129.907 79.8654H133.863V82.3218H129.874L129.825 92.0498C129.825 92.7113 129.901 93.2481 130.053 93.6602C130.205 94.0724 130.45 94.3597 130.786 94.5224C131.123 94.6743 131.503 94.7502 131.926 94.7502C132.382 94.7502 132.783 94.7122 133.131 94.6363C133.478 94.5495 133.858 94.4086 134.271 94.2133L134.971 96.2468C134.45 96.5179 133.901 96.7294 133.326 96.8812C132.751 97.0439 132.072 97.1252 131.291 97.1252C130.553 97.1252 129.907 97.033 129.353 96.8487C128.81 96.6751 128.349 96.3769 127.969 95.954C127.6 95.531 127.323 94.9671 127.139 94.2621C126.954 93.5464 126.862 92.6571 126.862 91.5943L126.911 82.3218H124.224V79.8654H126.943V75.8311L129.907 74.4321V79.8654Z" fill="white"/>
</svg>
