<svg width="173" height="158" viewBox="0 0 173 158" fill="none" xmlns="http://www.w3.org/2000/svg">
<path d="M83.0605 2.49463C84.6009 -0.315917 88.6382 -0.315917 90.1786 2.49463C91.5713 5.03567 95.1015 5.34067 96.9093 3.07613L97.1015 2.83544C99.067 0.373467 102.978 1.0639 103.982 4.05002C104.892 6.75883 108.277 7.65282 110.406 5.74702L110.893 5.31155C113.199 3.2476 116.875 4.58327 117.318 7.64623C117.722 10.4346 120.869 11.876 123.244 10.3598L124.022 9.86293C126.589 8.22416 129.939 10.1448 129.822 13.1877C129.715 15.9669 132.549 17.9025 135.099 16.7909L136.098 16.3554C138.853 15.154 141.806 17.5911 141.15 20.5246C140.548 23.2113 143.007 25.5802 145.67 24.8785L146.767 24.5891C149.65 23.8294 152.149 26.7107 150.989 29.4569C149.925 31.9772 151.958 34.7142 154.679 34.4228L155.731 34.3101C158.686 33.9937 160.686 37.246 159.07 39.74C157.586 42.0314 159.153 45.0684 161.881 45.1866L162.749 45.2242C165.724 45.3531 167.188 48.9024 165.17 51.0913C163.315 53.1029 164.383 56.3695 167.068 56.8963L167.648 57.01C170.59 57.5872 171.488 61.358 169.121 63.199C166.948 64.8896 167.492 68.3126 170.082 69.2463L170.318 69.3316C173.171 70.3598 173.476 74.273 170.817 75.7304C168.379 77.0666 168.379 80.5684 170.817 81.9046C173.476 83.362 173.171 87.2752 170.318 88.3035L170.082 88.3887C167.492 89.3224 166.948 92.7454 169.121 94.436C171.488 96.277 170.59 100.048 167.648 100.625L167.068 100.739C164.383 101.265 163.315 104.532 165.17 106.544C167.188 108.733 165.724 112.282 162.749 112.411L161.881 112.448C159.153 112.567 157.586 115.604 159.07 117.895C160.686 120.389 158.686 123.641 155.731 123.325L154.679 123.212C151.958 122.921 149.925 125.658 150.989 128.178C152.149 130.924 149.65 133.806 146.767 133.046L145.67 132.757C143.007 132.055 140.548 134.424 141.15 137.11C141.806 140.044 138.853 142.481 136.098 141.28L135.099 140.844C132.55 139.733 129.715 141.668 129.822 144.447C129.939 147.49 126.589 149.411 124.022 147.772L123.244 147.275C120.869 145.759 117.722 147.2 117.318 149.989C116.875 153.052 113.199 154.387 110.893 152.323L110.406 151.888C108.277 149.982 104.892 150.876 103.982 153.585C102.978 156.571 99.067 157.262 97.1015 154.8L96.9093 154.559C95.1015 152.294 91.5713 152.599 90.1786 155.14C88.6382 157.951 84.6009 157.951 83.0605 155.14C81.6679 152.599 78.1376 152.294 76.3298 154.559L76.1376 154.8C74.1722 157.262 70.261 156.571 69.2572 153.585C68.3467 150.876 64.9623 149.982 62.8328 151.888L62.3463 152.323C60.0401 154.387 56.3643 153.052 55.9211 149.989C55.5176 147.2 52.3698 145.759 49.9952 147.275L49.217 147.772C46.6505 149.411 43.3001 147.49 43.4173 144.447C43.5244 141.668 40.6896 139.733 38.1401 140.844L37.1413 141.28C34.3858 142.481 31.4327 140.044 32.0896 137.11C32.6912 134.424 30.2319 132.055 27.5696 132.757L26.4717 133.046C23.5892 133.806 21.0901 130.924 22.2498 128.178C23.3141 125.658 21.2808 122.921 18.5605 123.212L17.5081 123.325C14.5535 123.641 12.5535 120.389 14.1689 117.895C15.6532 115.604 14.0862 112.567 11.3585 112.448L10.4898 112.411C7.51504 112.282 6.05075 108.733 8.0693 106.544C9.92435 104.532 8.85602 101.265 6.17083 100.739L5.59124 100.625C2.64888 100.048 1.75126 96.277 4.11801 94.436C6.29141 92.7454 5.74756 89.3224 3.1572 88.3887L2.92069 88.3035C0.0681024 87.2752 -0.236613 83.362 2.42242 81.9046C4.86022 80.5684 4.86022 77.0666 2.42242 75.7304C-0.236612 74.273 0.0681028 70.3598 2.92069 69.3316L3.15721 69.2463C5.74756 68.3126 6.29141 64.8896 4.11801 63.199C1.75127 61.358 2.64888 57.5872 5.59124 57.01L6.17083 56.8963C8.85602 56.3695 9.92434 53.1029 8.0693 51.0913C6.05074 48.9024 7.51504 45.3531 10.4898 45.2242L11.3585 45.1866C14.0862 45.0684 15.6532 42.0314 14.1689 39.74C12.5535 37.246 14.5535 33.9937 17.5081 34.3101L18.5605 34.4228C21.2808 34.7142 23.3141 31.9772 22.2498 29.4569C21.0901 26.7107 23.5891 23.8294 26.4717 24.5891L27.5696 24.8785C30.2319 25.5802 32.6912 23.2113 32.0896 20.5246C31.4327 17.5911 34.3858 15.154 37.1414 16.3554L38.1401 16.7909C40.6896 17.9025 43.5244 15.9669 43.4173 13.1877C43.3001 10.1448 46.6505 8.22416 49.217 9.86293L49.9952 10.3598C52.3698 11.876 55.5176 10.4346 55.9211 7.64623C56.3643 4.58327 60.0401 3.2476 62.3463 5.31155L62.8328 5.74702C64.9623 7.65282 68.3467 6.75883 69.2572 4.05003C70.261 1.0639 74.1722 0.373463 76.1376 2.83543L76.3298 3.07613C78.1376 5.34066 81.6679 5.03567 83.0605 2.49463Z" fill="#B1B000"/>
<path d="M31.1032 86.9853H32.5798L31.1736 82.954H24.3415L22.9704 86.9853H24.7986V89.0009H19.0329V86.9853H20.5798L26.1111 71.2353H29.5681L35.0876 86.9853H36.8689V89.0009H31.1032V86.9853ZM25.0095 81.0087H30.4939L27.7282 73.0634L25.0095 81.0087Z" fill="white"/>
<path d="M45.3181 70.7665H49.1501V86.9853H50.9314V89.0009H46.9704V88.0048C46.5798 88.4032 46.1267 88.7157 45.6111 88.9423C45.0954 89.1611 44.5095 89.2704 43.8532 89.2704C43.0329 89.2704 42.2673 89.1298 41.5564 88.8486C40.8532 88.5595 40.24 88.1415 39.7165 87.5947C39.2009 87.04 38.7947 86.3642 38.4978 85.5673C38.2087 84.7626 38.0642 83.8447 38.0642 82.8134C38.0642 81.8759 38.2048 81.0243 38.4861 80.2587C38.7673 79.4853 39.1657 78.829 39.6814 78.29C40.197 77.7431 40.8181 77.3212 41.5447 77.0243C42.2712 76.7197 43.0798 76.5673 43.9704 76.5673C44.5564 76.5673 45.0915 76.6337 45.5759 76.7665C46.0603 76.8915 46.5251 77.1142 46.9704 77.4345V72.7822H45.3181V70.7665ZM44.1345 87.372C44.7829 87.372 45.3259 87.2782 45.7634 87.0907C46.2009 86.8954 46.6032 86.6064 46.9704 86.2236V79.4267C46.5798 79.0986 46.1306 78.8603 45.6228 78.7118C45.115 78.5634 44.5954 78.4892 44.0642 78.4892C43.5486 78.4892 43.0642 78.5868 42.6111 78.7822C42.1579 78.9697 41.7595 79.247 41.4157 79.6142C41.0798 79.9814 40.8142 80.4306 40.6189 80.9618C40.4236 81.4931 40.3259 82.1025 40.3259 82.79C40.3259 83.54 40.4197 84.2001 40.6072 84.7704C40.7947 85.3407 41.0564 85.8212 41.3923 86.2118C41.7282 86.5947 42.1306 86.8837 42.5993 87.079C43.0681 87.2743 43.5798 87.372 44.1345 87.372Z" fill="white"/>
<path d="M52.0798 76.8603H56.2751V78.8759H55.1384L58.1384 87.2431L61.0681 78.8759H60.3298V76.8603H64.1736V78.8759H63.1306L59.1579 89.1884H57.0017L53.0407 78.8759H52.0798V76.8603Z" fill="white"/>
<path d="M67.9704 83.2118C67.9704 83.5556 67.9939 83.872 68.0407 84.1611C68.0954 84.4423 68.1697 84.7118 68.2634 84.9697C68.5525 85.7509 69.0134 86.3407 69.6462 86.7392C70.2868 87.1298 71.0095 87.3251 71.8142 87.3251C72.447 87.3251 73.0603 87.2392 73.654 87.0673C74.2556 86.8876 74.8845 86.6103 75.5407 86.2353L76.4197 87.7236C75.6228 88.2704 74.822 88.6767 74.0173 88.9423C73.2126 89.2079 72.3767 89.3407 71.5095 89.3407C70.6892 89.3407 69.9275 89.204 69.2243 88.9306C68.529 88.6572 67.9275 88.2509 67.4197 87.7118C66.9197 87.1728 66.5251 86.5009 66.2361 85.6962C65.9548 84.8915 65.8142 83.954 65.8142 82.8837C65.8142 82.0165 65.9353 81.2001 66.1775 80.4345C66.4197 79.6611 66.779 78.9892 67.2556 78.4189C67.74 77.8407 68.3376 77.3837 69.0486 77.0478C69.7595 76.7118 70.5876 76.5439 71.5329 76.5439C72.447 76.5439 73.2087 76.6845 73.8181 76.9657C74.4353 77.2392 74.9353 77.6064 75.3181 78.0673C75.7087 78.5204 76.0017 79.04 76.197 79.6259C76.4001 80.2118 76.5407 80.8095 76.6189 81.4189C76.6579 81.7157 76.6814 82.0165 76.6892 82.3212C76.7048 82.6259 76.7126 82.9228 76.7126 83.2118H67.9704ZM71.3806 78.372C70.8728 78.372 70.4275 78.4462 70.0447 78.5947C69.6697 78.7353 69.3493 78.9423 69.0837 79.2157C68.8181 79.4814 68.6032 79.8095 68.4392 80.2001C68.2829 80.5907 68.1657 81.0282 68.0876 81.5126H74.3806C74.3493 81.0595 74.2751 80.6415 74.1579 80.2587C74.0486 79.8759 73.8767 79.5439 73.6423 79.2626C73.4079 78.9814 73.1072 78.7626 72.74 78.6064C72.3728 78.4501 71.9197 78.372 71.3806 78.372Z" fill="white"/>
<path d="M88.4197 79.4267H86.1931V78.6767C85.9353 78.6767 85.6697 78.7275 85.3962 78.829C85.1306 78.9228 84.8806 79.0712 84.6462 79.2743C84.4118 79.4697 84.2048 79.7236 84.0251 80.0361C83.8532 80.3407 83.7282 80.704 83.6501 81.1259V86.9853H85.7126V89.0009H79.6892V86.9853H81.365L81.3767 78.8759H79.6892V76.8603H83.5681V78.5361C83.7087 78.2861 83.865 78.0556 84.0368 77.8447C84.2165 77.6259 84.4118 77.4384 84.6228 77.2822C84.8415 77.1181 85.0798 76.9931 85.3376 76.9072C85.6032 76.8134 85.8884 76.7665 86.1931 76.7665C86.5993 76.7665 86.9822 76.7665 87.3415 76.7665C87.7009 76.7665 88.0603 76.7743 88.4197 76.79V79.4267Z" fill="white"/>
<path d="M94.4548 76.8603H97.3025V78.6298H94.4314L94.3962 85.6376C94.3962 86.1142 94.4509 86.5009 94.5603 86.7978C94.6697 87.0947 94.8454 87.3017 95.0876 87.4189C95.3298 87.5282 95.6032 87.5829 95.9079 87.5829C96.2361 87.5829 96.5251 87.5556 96.7751 87.5009C97.0251 87.4384 97.2986 87.3368 97.5954 87.1962L98.0993 88.6611C97.7243 88.8564 97.3298 89.0087 96.9157 89.1181C96.5017 89.2353 96.0134 89.2939 95.4509 89.2939C94.9197 89.2939 94.4548 89.2275 94.0564 89.0947C93.6657 88.9697 93.3337 88.7548 93.0603 88.4501C92.7947 88.1454 92.5954 87.7392 92.4626 87.2314C92.3298 86.7157 92.2634 86.0751 92.2634 85.3095L92.2986 78.6298H90.365V76.8603H92.322V73.954L94.4548 72.9462V76.8603Z" fill="white"/>
<path d="M99.7751 76.8603H103.736V86.9853H105.564V89.0009H99.7986V86.9853H101.533V78.8759H99.7751V76.8603ZM101.123 72.5595C101.123 72.3564 101.162 72.165 101.24 71.9853C101.326 71.7978 101.435 71.6376 101.568 71.5048C101.709 71.3642 101.873 71.2548 102.06 71.1767C102.248 71.0907 102.447 71.0478 102.658 71.0478C102.861 71.0478 103.052 71.0907 103.232 71.1767C103.42 71.2548 103.58 71.3642 103.713 71.5048C103.853 71.6376 103.963 71.7978 104.041 71.9853C104.127 72.165 104.17 72.3564 104.17 72.5595C104.17 72.7704 104.127 72.9697 104.041 73.1572C103.963 73.3447 103.853 73.5126 103.713 73.6611C103.58 73.8017 103.42 73.915 103.232 74.0009C103.052 74.079 102.861 74.1181 102.658 74.1181C102.447 74.1181 102.248 74.079 102.06 74.0009C101.873 73.915 101.709 73.8017 101.568 73.6611C101.435 73.5126 101.326 73.3447 101.24 73.1572C101.162 72.9697 101.123 72.7704 101.123 72.5595Z" fill="white"/>
<path d="M114.588 80.1181C114.588 79.79 114.509 79.5126 114.353 79.2861C114.205 79.0517 114.009 78.8642 113.767 78.7236C113.525 78.5751 113.256 78.4697 112.959 78.4072C112.662 78.3368 112.373 78.3017 112.092 78.3017C111.779 78.3017 111.49 78.3368 111.224 78.4072C110.967 78.4775 110.744 78.579 110.556 78.7118C110.369 78.8447 110.22 79.0087 110.111 79.204C110.009 79.3915 109.959 79.6025 109.959 79.8368C109.959 80.2431 110.08 80.5673 110.322 80.8095C110.572 81.0439 110.986 81.2626 111.564 81.4657L113.896 82.2861C114.896 82.622 115.627 83.079 116.088 83.6572C116.549 84.2353 116.779 84.9267 116.779 85.7314C116.779 86.2704 116.67 86.7665 116.451 87.2197C116.24 87.665 115.935 88.0478 115.537 88.3681C115.146 88.6806 114.674 88.9228 114.119 89.0947C113.564 89.2743 112.947 89.3642 112.267 89.3642C111.322 89.3642 110.552 89.2118 109.959 88.9072C109.365 88.6025 108.908 88.2001 108.588 87.7001H107.369V85.6845H109.795C109.795 86.0204 109.865 86.3095 110.006 86.5517C110.154 86.7861 110.345 86.9775 110.58 87.1259C110.822 87.2743 111.092 87.3837 111.388 87.454C111.693 87.5243 112.002 87.5595 112.314 87.5595C112.619 87.5595 112.912 87.5243 113.193 87.454C113.474 87.3759 113.72 87.2665 113.931 87.1259C114.15 86.9775 114.322 86.8017 114.447 86.5986C114.572 86.3954 114.634 86.165 114.634 85.9072C114.634 85.5165 114.506 85.1845 114.248 84.9111C113.998 84.6376 113.568 84.3915 112.959 84.1728L110.638 83.3056C109.693 82.9697 108.99 82.5439 108.529 82.0282C108.076 81.5048 107.849 80.8525 107.849 80.0712C107.849 79.5556 107.943 79.079 108.131 78.6415C108.326 78.204 108.603 77.829 108.963 77.5165C109.33 77.1962 109.775 76.9462 110.299 76.7665C110.822 76.5868 111.42 76.497 112.092 76.497C112.959 76.497 113.685 76.6181 114.271 76.8603C114.857 77.1025 115.384 77.5165 115.853 78.1025H116.99V80.1181H114.588Z" fill="white"/>
<path d="M119.134 76.8603H123.095V86.9853H124.924V89.0009H119.158V86.9853H120.892V78.8759H119.134V76.8603ZM120.482 72.5595C120.482 72.3564 120.521 72.165 120.599 71.9853C120.685 71.7978 120.795 71.6376 120.927 71.5048C121.068 71.3642 121.232 71.2548 121.42 71.1767C121.607 71.0907 121.806 71.0478 122.017 71.0478C122.22 71.0478 122.412 71.0907 122.592 71.1767C122.779 71.2548 122.939 71.3642 123.072 71.5048C123.213 71.6376 123.322 71.7978 123.4 71.9853C123.486 72.165 123.529 72.3564 123.529 72.5595C123.529 72.7704 123.486 72.9697 123.4 73.1572C123.322 73.3447 123.213 73.5126 123.072 73.6611C122.939 73.8017 122.779 73.915 122.592 74.0009C122.412 74.079 122.22 74.1181 122.017 74.1181C121.806 74.1181 121.607 74.079 121.42 74.0009C121.232 73.915 121.068 73.8017 120.927 73.6611C120.795 73.5126 120.685 73.3447 120.599 73.1572C120.521 72.9697 120.482 72.7704 120.482 72.5595Z" fill="white"/>
<path d="M134.931 86.9853H136.642V81.4423C136.642 80.5126 136.404 79.8095 135.927 79.3329C135.459 78.8486 134.783 78.6064 133.9 78.6064C133.392 78.6064 132.881 78.7275 132.365 78.9697C131.849 79.2118 131.361 79.5126 130.9 79.872V86.9853H132.611V89.0009H126.939V86.9853H128.627V78.8759H126.939V76.8603H130.806V78.29H130.83C131.088 78.0634 131.361 77.8486 131.65 77.6454C131.947 77.4423 132.256 77.2665 132.576 77.1181C132.896 76.9697 133.228 76.8525 133.572 76.7665C133.924 76.6806 134.291 76.6376 134.674 76.6376C135.322 76.6376 135.908 76.7275 136.431 76.9072C136.955 77.0868 137.4 77.3603 137.767 77.7275C138.134 78.0947 138.416 78.5673 138.611 79.1454C138.814 79.7157 138.916 80.3915 138.916 81.1728V86.9853H140.603V89.0009H134.931V86.9853Z" fill="white"/>
<path d="M151.83 87.9345C151.431 88.3564 150.967 88.6845 150.435 88.9189C149.912 89.1532 149.314 89.2704 148.642 89.2704C147.822 89.2704 147.056 89.1298 146.345 88.8486C145.642 88.5595 145.029 88.1415 144.506 87.5947C143.99 87.04 143.584 86.3642 143.287 85.5673C142.998 84.7626 142.853 83.8447 142.853 82.8134C142.853 81.8759 142.994 81.0243 143.275 80.2587C143.556 79.4853 143.955 78.829 144.47 78.29C144.986 77.7431 145.607 77.3212 146.334 77.0243C147.06 76.7197 147.869 76.5673 148.759 76.5673C149.369 76.5673 149.916 76.6376 150.4 76.7782C150.892 76.9111 151.369 77.1454 151.83 77.4814V76.8603H154.009V88.5204C154.009 90.4423 153.552 91.8954 152.638 92.8798C151.732 93.8642 150.318 94.3564 148.396 94.3564C147.974 94.3564 147.533 94.3251 147.072 94.2626C146.611 94.2001 146.154 94.0986 145.701 93.9579C145.256 93.8251 144.818 93.6532 144.388 93.4423C143.967 93.2314 143.576 92.9736 143.217 92.6689L144.388 90.8993C144.623 91.1025 144.888 91.29 145.185 91.4618C145.49 91.6337 145.814 91.7782 146.158 91.8954C146.502 92.0204 146.857 92.1181 147.224 92.1884C147.592 92.2587 147.959 92.2939 148.326 92.2939C148.927 92.2939 149.447 92.2314 149.884 92.1064C150.33 91.9814 150.693 91.7587 150.974 91.4384C151.263 91.1259 151.478 90.7001 151.619 90.1611C151.759 89.622 151.83 88.9384 151.83 88.1103V87.9345ZM148.924 87.372C149.283 87.372 149.611 87.3368 149.908 87.2665C150.205 87.1962 150.474 87.1064 150.717 86.997C150.959 86.8798 151.17 86.747 151.349 86.5986C151.537 86.4501 151.697 86.2939 151.83 86.1298V79.4853C151.431 79.1337 150.97 78.8798 150.447 78.7236C149.931 78.5673 149.4 78.4892 148.853 78.4892C148.338 78.4892 147.853 78.5868 147.4 78.7822C146.947 78.9697 146.549 79.247 146.205 79.6142C145.869 79.9814 145.603 80.4306 145.408 80.9618C145.213 81.4931 145.115 82.1025 145.115 82.79C145.115 83.54 145.209 84.2001 145.396 84.7704C145.584 85.3407 145.845 85.8212 146.181 86.2118C146.517 86.5947 146.92 86.8837 147.388 87.079C147.857 87.2743 148.369 87.372 148.924 87.372Z" fill="white"/>
</svg>
