<svg width="231" height="141" viewBox="0 0 231 141" fill="none" xmlns="http://www.w3.org/2000/svg">
<path d="M112.074 5.00134C113.842 2.82941 117.158 2.82941 118.926 5.00133L120.156 6.51153C122.068 8.86083 125.535 9.18583 127.85 7.23285L130.054 5.37404C132.241 3.52964 135.578 4.21836 136.855 6.77794L137.059 7.18489C138.471 10.0135 141.995 11.0372 144.702 9.40546L148.029 7.40072C150.299 6.03296 153.24 7.3058 153.797 9.89668C154.441 12.89 157.657 14.5506 160.47 13.3413L165.157 11.3265C167.349 10.3841 169.766 12.0773 169.63 14.4593C169.464 17.3656 172.226 19.5598 175.019 18.7398L180.647 17.0876C182.767 16.4654 184.712 18.4811 184.015 20.5771C183.122 23.2644 185.426 25.9304 188.214 25.4355L194.049 24.4001C196.128 24.0312 197.659 26.3026 196.537 28.0915C195.042 30.4743 196.889 33.545 199.694 33.3427L205.033 32.9577C207.106 32.8082 208.272 35.2945 206.831 36.7927C204.865 38.8363 206.256 42.2426 209.091 42.3253L213.368 42.4501C215.466 42.5113 216.297 45.1933 214.603 46.4309C212.269 48.1349 213.207 51.8143 216.072 52.1927L218.897 52.5658C221.043 52.8493 221.553 55.7254 219.635 56.73C217.005 58.1074 217.484 62.0081 220.369 62.7083L221.538 62.9919C223.751 63.5291 223.929 66.609 221.792 67.3977C218.91 68.4615 218.91 72.5385 221.792 73.6023C223.929 74.391 223.751 77.4709 221.538 78.0081L220.369 78.2917C217.484 78.9919 217.005 82.8926 219.635 84.27C221.553 85.2746 221.043 88.1507 218.897 88.4342L216.072 88.8073C213.207 89.1857 212.269 92.8651 214.603 94.5691C216.297 95.8067 215.466 98.4887 213.368 98.5499L209.091 98.6747C206.256 98.7574 204.865 102.164 206.831 104.207C208.272 105.705 207.106 108.192 205.033 108.042L199.694 107.657C196.889 107.455 195.042 110.526 196.537 112.909C197.659 114.697 196.128 116.969 194.049 116.6L188.214 115.564C185.426 115.07 183.122 117.736 184.015 120.423C184.712 122.519 182.767 124.535 180.647 123.912L175.019 122.26C172.226 121.44 169.464 123.634 169.63 126.541C169.766 128.923 167.349 130.616 165.157 129.674L160.47 127.659C157.657 126.449 154.441 128.11 153.797 131.103C153.24 133.694 150.299 134.967 148.029 133.599L144.702 131.595C141.995 129.963 138.471 130.987 137.059 133.815L136.855 134.222C135.578 136.782 132.241 137.47 130.054 135.626L127.85 133.767C125.535 131.814 122.068 132.139 120.156 134.488L118.926 135.999C117.158 138.171 113.842 138.171 112.074 135.999L110.844 134.488C108.932 132.139 105.465 131.814 103.15 133.767L100.946 135.626C98.7587 137.47 95.4223 136.782 94.1445 134.222L93.9414 133.815C92.5293 130.987 89.0054 129.963 86.2976 131.595L82.9708 133.599C80.701 134.967 77.7595 133.694 77.2027 131.103C76.5594 128.11 73.3426 126.449 70.5299 127.659L65.8433 129.674C63.6513 130.616 61.2338 128.923 61.3701 126.541C61.5364 123.634 58.7738 121.44 55.9806 122.26L50.3525 123.912C48.233 124.535 46.2877 122.519 46.9847 120.423C47.8784 117.736 45.5744 115.07 42.786 115.564L36.9515 116.6C34.8723 116.969 33.3412 114.697 34.4631 112.909C35.9576 110.526 34.1114 107.455 31.306 107.657L25.967 108.042C23.8936 108.192 22.728 105.705 24.1693 104.207C26.1353 102.164 24.7439 98.7574 21.9093 98.6747L17.6322 98.5499C15.5344 98.4887 14.7025 95.8067 16.3975 94.5691C18.7312 92.8651 17.793 89.1857 14.9283 88.8073L12.1035 88.4342C9.95677 88.1507 9.44658 85.2746 11.3648 84.27C13.9948 82.8926 13.5158 78.9919 10.6307 78.2917L9.46248 78.0081C7.24871 77.4709 7.07074 74.391 9.20788 73.6023C12.0904 72.5385 12.0904 68.4615 9.20788 67.3977C7.07074 66.609 7.2487 63.5291 9.46248 62.9919L10.6307 62.7083C13.5158 62.0081 13.9948 58.1074 11.3648 56.73C9.44658 55.7254 9.95677 52.8493 12.1035 52.5658L14.9283 52.1927C17.793 51.8143 18.7312 48.1349 16.3975 46.4309C14.7025 45.1933 15.5344 42.5113 17.6322 42.4501L21.9093 42.3253C24.7439 42.2426 26.1353 38.8363 24.1693 36.7927C22.728 35.2945 23.8936 32.8082 25.967 32.9577L31.306 33.3427C34.1114 33.545 35.9576 30.4743 34.4631 28.0915C33.3412 26.3026 34.8723 24.0312 36.9515 24.4001L42.786 25.4355C45.5744 25.9304 47.8784 23.2644 46.9847 20.5771C46.2877 18.4811 48.233 16.4654 50.3525 17.0876L55.9806 18.7398C58.7738 19.5598 61.5364 17.3656 61.3701 14.4593C61.2338 12.0773 63.6513 10.3841 65.8433 11.3265L70.5299 13.3413C73.3426 14.5506 76.5594 12.89 77.2027 9.89667C77.7595 7.3058 80.701 6.03296 82.9708 7.40072L86.2976 9.40547C89.0054 11.0372 92.5293 10.0135 93.9414 7.18489L94.1445 6.77794L93.6972 6.55461L94.1445 6.77794C95.4223 4.21836 98.7587 3.52964 100.946 5.37404L103.15 7.23285C105.465 9.18583 108.932 8.86083 110.844 6.51153L112.074 5.00134Z" fill="#B1B000" stroke="#7B8400"/>
<path d="M67.8101 66.2598C67.0249 64.9238 65.982 63.875 64.6812 63.1133C63.3921 62.3516 61.9507 61.9707 60.357 61.9707C58.9976 61.9707 57.7554 62.2578 56.6304 62.832C55.5054 63.4062 54.5386 64.1797 53.73 65.1523C52.9332 66.1133 52.3121 67.2324 51.8667 68.5098C51.4214 69.7754 51.1988 71.1113 51.1988 72.5176C51.1988 74.1816 51.4449 75.6582 51.9371 76.9473C52.4292 78.2246 53.0679 79.291 53.8531 80.1465C54.6499 80.9902 55.5933 81.6992 56.6832 82.2734C57.773 82.8359 58.9976 83.1172 60.357 83.1172C62.2085 83.1172 63.8199 82.6719 65.191 81.7812C66.5621 80.8789 67.7339 79.4023 68.7066 77.3516L71.8003 78.8105C71.355 80.0762 70.5992 81.3008 69.5328 82.4844C68.4664 83.6562 67.148 84.6055 65.5777 85.332C64.0191 86.0469 62.2906 86.4043 60.3921 86.4043C58.5757 86.4043 56.9058 86.0645 55.3824 85.3848C53.8589 84.6934 52.4996 83.7148 51.3042 82.4492C50.1207 81.1836 49.2124 79.6836 48.5796 77.9492C47.9585 76.2148 47.648 74.4043 47.648 72.5176C47.648 70.6191 47.9585 68.8262 48.5796 67.1387C49.2124 65.4512 50.0914 63.9863 51.2164 62.7441C52.3531 61.4902 53.7007 60.5059 55.2593 59.791C56.8296 59.0645 58.5289 58.7012 60.357 58.7012C61.9859 58.7012 63.3921 58.9355 64.5757 59.4043C65.7593 59.8613 66.7613 60.4121 67.5816 61.0566C68.4136 61.6895 69.1285 62.3809 69.7261 63.1309H71.5894V66.2598H67.8101ZM74.4371 76.7715C74.4488 75.3301 74.6773 74.0176 75.1226 72.834C75.5796 71.6504 76.2124 70.6367 77.021 69.793C77.8296 68.9375 78.7906 68.2812 79.9039 67.8242C81.0171 67.3672 82.2417 67.1387 83.5777 67.1387C84.9253 67.1387 86.1558 67.3672 87.2691 67.8242C88.3941 68.2812 89.355 68.9316 90.1519 69.7754C90.9488 70.6074 91.5699 71.6152 92.0152 72.7988C92.4605 73.9824 92.6832 75.2949 92.6832 76.7363C92.6832 78.1543 92.4605 79.4609 92.0152 80.6562C91.5699 81.8398 90.9488 82.8594 90.1519 83.7148C89.355 84.5703 88.3941 85.2383 87.2691 85.7188C86.1558 86.1875 84.9253 86.4219 83.5777 86.4219C82.2066 86.4219 80.9644 86.1875 79.8511 85.7188C78.7378 85.25 77.7828 84.5938 76.9859 83.75C76.189 82.8945 75.5679 81.875 75.1226 80.6914C74.6773 79.5078 74.4488 78.2012 74.4371 76.7715ZM77.8999 76.7715C77.8999 77.8145 78.0464 78.7578 78.3394 79.6016C78.6441 80.4453 79.0542 81.166 79.5699 81.7637C80.0972 82.3496 80.7007 82.8066 81.3804 83.1348C82.0718 83.4512 82.8042 83.6094 83.5777 83.6094C84.3863 83.6094 85.1363 83.4512 85.8277 83.1348C86.5308 82.8184 87.1402 82.3672 87.6558 81.7812C88.1714 81.1836 88.5757 80.4629 88.8687 79.6191C89.1617 78.7754 89.3082 77.8262 89.3082 76.7715C89.3082 75.6699 89.1617 74.6914 88.8687 73.8359C88.5757 72.9805 88.1714 72.2656 87.6558 71.6914C87.1519 71.1172 86.5484 70.6836 85.8453 70.3906C85.1421 70.0977 84.3863 69.9512 83.5777 69.9512C82.8042 69.9512 82.0718 70.0977 81.3804 70.3906C80.7007 70.6836 80.0972 71.1172 79.5699 71.6914C79.0542 72.2656 78.6441 72.9805 78.3394 73.8359C78.0464 74.6914 77.8999 75.6699 77.8999 76.7715ZM108.222 82.8535H110.789V74.5391C110.789 73.1445 110.431 72.0898 109.716 71.375C109.013 70.6484 108 70.2852 106.675 70.2852C105.914 70.2852 105.146 70.4668 104.373 70.8301C103.599 71.1934 102.867 71.6445 102.175 72.1836V82.8535H104.742V85.877H96.2339V82.8535H98.7652V70.6895H96.2339V67.666H102.035V69.8105H102.07C102.457 69.4707 102.867 69.1484 103.3 68.8438C103.746 68.5391 104.209 68.2754 104.689 68.0527C105.169 67.8301 105.668 67.6543 106.183 67.5254C106.71 67.3965 107.261 67.332 107.835 67.332C108.808 67.332 109.687 67.4668 110.472 67.7363C111.257 68.0059 111.925 68.416 112.476 68.9668C113.027 69.5176 113.449 70.2266 113.742 71.0938C114.046 71.9492 114.199 72.9629 114.199 74.1348V82.8535H116.73V85.877H108.222V82.8535ZM125.519 67.666H129.791V70.3203H125.484L125.431 80.832C125.431 81.5469 125.513 82.127 125.677 82.5723C125.841 83.0176 126.105 83.3281 126.468 83.5039C126.832 83.668 127.242 83.75 127.699 83.75C128.191 83.75 128.625 83.709 129 83.627C129.375 83.5332 129.785 83.3809 130.23 83.1699L130.986 85.3672C130.423 85.6602 129.832 85.8887 129.21 86.0527C128.589 86.2285 127.857 86.3164 127.013 86.3164C126.216 86.3164 125.519 86.2168 124.921 86.0176C124.335 85.8301 123.837 85.5078 123.427 85.0508C123.029 84.5938 122.73 83.9844 122.531 83.2227C122.332 82.4492 122.232 81.4883 122.232 80.3398L122.285 70.3203H119.384V67.666H122.32V63.3066L125.519 61.7949V67.666ZM144.345 84.1895C143.654 84.834 142.886 85.3613 142.043 85.7715C141.21 86.1816 140.261 86.3867 139.195 86.3867C138.304 86.3867 137.484 86.2461 136.734 85.9648C135.996 85.6836 135.357 85.3027 134.818 84.8223C134.279 84.3301 133.857 83.7617 133.552 83.1172C133.259 82.4727 133.113 81.7871 133.113 81.0605C133.113 80.2871 133.224 79.6016 133.447 79.0039C133.681 78.4062 133.986 77.8906 134.361 77.457C134.748 77.0117 135.193 76.6426 135.697 76.3496C136.212 76.0449 136.746 75.8047 137.296 75.6289C137.859 75.4414 138.427 75.3125 139.002 75.2422C139.587 75.1602 140.144 75.1191 140.671 75.1191C141.515 75.1191 142.224 75.1484 142.798 75.207C143.373 75.2539 143.894 75.3242 144.363 75.418L144.38 73.9238C144.38 73.2793 144.287 72.7227 144.099 72.2539C143.912 71.7734 143.648 71.3809 143.308 71.0762C142.968 70.7598 142.558 70.5254 142.078 70.373C141.609 70.2207 141.082 70.1445 140.496 70.1445C139.945 70.1445 139.418 70.1855 138.914 70.2676C138.41 70.3379 137.935 70.4375 137.49 70.5664C137.056 70.6836 136.652 70.8242 136.277 70.9883C135.914 71.1406 135.603 71.3047 135.345 71.4805L134.273 69.2129C134.707 68.9316 135.181 68.6738 135.697 68.4395C136.212 68.1934 136.752 67.9883 137.314 67.8242C137.888 67.6484 138.468 67.5137 139.054 67.4199C139.652 67.3145 140.238 67.2617 140.812 67.2617C141.867 67.2617 142.816 67.3906 143.66 67.6484C144.503 67.8945 145.218 68.2812 145.804 68.8086C146.39 69.3359 146.841 70.0098 147.158 70.8301C147.474 71.6387 147.632 72.6113 147.632 73.748L147.615 82.8535H149.636V85.877H144.345V84.1895ZM139.916 83.6445C140.349 83.6445 140.783 83.5918 141.216 83.4863C141.65 83.3809 142.06 83.2402 142.447 83.0645C142.834 82.877 143.191 82.666 143.519 82.4316C143.847 82.1855 144.123 81.9336 144.345 81.6758L144.363 77.5625H140.566C139.933 77.5625 139.353 77.6328 138.826 77.7734C138.31 77.9141 137.859 78.1191 137.472 78.3887C137.097 78.6582 136.804 78.9922 136.593 79.3906C136.382 79.7891 136.277 80.2461 136.277 80.7617C136.277 81.2422 136.365 81.6641 136.541 82.0273C136.716 82.3789 136.962 82.6777 137.279 82.9238C137.607 83.1582 137.994 83.3398 138.439 83.4688C138.884 83.5859 139.377 83.6445 139.916 83.6445ZM166.476 72.5176C165.984 71.6387 165.357 70.9941 164.595 70.584C163.845 70.1738 162.972 69.9688 161.976 69.9688C161.214 69.9688 160.5 70.127 159.832 70.4434C159.164 70.7598 158.578 71.2109 158.074 71.7969C157.582 72.3828 157.189 73.0977 156.896 73.9414C156.615 74.7734 156.474 75.7051 156.474 76.7363C156.474 77.7559 156.615 78.6758 156.896 79.4961C157.189 80.3164 157.587 81.0195 158.091 81.6055C158.595 82.1797 159.175 82.625 159.832 82.9414C160.5 83.2461 161.214 83.3984 161.976 83.3984C163.101 83.3984 164.08 83.1289 164.912 82.5898C165.744 82.0391 166.406 81.2363 166.898 80.1816L169.605 81.5176C169.253 82.2676 168.82 82.9414 168.304 83.5391C167.789 84.1367 167.203 84.6465 166.546 85.0684C165.902 85.4902 165.187 85.8125 164.402 86.0352C163.628 86.2695 162.808 86.3867 161.941 86.3867C160.675 86.3867 159.503 86.1523 158.425 85.6836C157.359 85.2031 156.433 84.5352 155.648 83.6797C154.875 82.8242 154.271 81.8047 153.837 80.6211C153.404 79.4375 153.187 78.1426 153.187 76.7363C153.187 75.3301 153.416 74.0352 153.873 72.8516C154.33 71.668 154.957 70.6543 155.753 69.8105C156.55 68.9551 157.482 68.2871 158.548 67.8066C159.615 67.3262 160.757 67.0859 161.976 67.0859C163.125 67.0859 164.209 67.2852 165.228 67.6836C166.259 68.082 167.162 68.6855 167.935 69.4941H169.781V72.5176H166.476ZM178.253 67.666H182.525V70.3203H178.218L178.166 80.832C178.166 81.5469 178.248 82.127 178.412 82.5723C178.576 83.0176 178.839 83.3281 179.203 83.5039C179.566 83.668 179.976 83.75 180.433 83.75C180.925 83.75 181.359 83.709 181.734 83.627C182.109 83.5332 182.519 83.3809 182.964 83.1699L183.72 85.3672C183.158 85.6602 182.566 85.8887 181.945 86.0527C181.324 86.2285 180.591 86.3164 179.748 86.3164C178.951 86.3164 178.253 86.2168 177.656 86.0176C177.07 85.8301 176.572 85.5078 176.162 85.0508C175.763 84.5938 175.464 83.9844 175.265 83.2227C175.066 82.4492 174.966 81.4883 174.966 80.3398L175.019 70.3203H172.119V67.666H175.054V63.3066L178.253 61.7949V67.666Z" fill="white"/>
</svg>
