<svg width="164" height="164" viewBox="0 0 164 164" fill="none" xmlns="http://www.w3.org/2000/svg">
<path d="M78.5408 2.76483C79.9221 -0.0127556 83.8881 -0.0127553 85.2694 2.76483C86.5263 5.29227 90.0208 5.58156 91.677 3.29528C93.4971 0.782728 97.4089 1.4349 98.3138 4.40175C99.1372 7.1014 102.536 7.96139 104.547 5.97864C106.756 3.79965 110.507 5.0862 110.911 8.16139C111.278 10.9596 114.489 12.3669 116.799 10.7417C119.337 8.95573 122.825 10.8416 122.716 13.9412C122.618 16.7617 125.553 18.6778 128.099 17.4546C130.897 16.1103 134.026 18.544 133.409 21.5835C132.847 24.3493 135.427 26.722 138.139 25.9341C141.12 25.0682 143.806 27.9834 142.696 30.8799C141.686 33.5156 143.84 36.2801 146.646 35.949C149.728 35.5851 151.898 38.9022 150.326 41.5767C148.895 44.0104 150.564 47.0914 153.386 47.2261C156.487 47.3742 158.08 51.0027 156.089 53.3823C154.277 55.5475 155.415 58.8609 158.176 59.4578C161.211 60.1137 162.184 63.9548 159.828 65.9744C157.684 67.8122 158.261 71.2677 160.886 72.3104C163.771 73.4564 164.099 77.4051 161.442 79.0098C159.025 80.47 159.025 83.9732 161.442 85.4334C164.099 87.0381 163.771 90.9868 160.886 92.1328C158.261 93.1755 157.684 96.631 159.828 98.4687C162.184 100.488 161.211 104.329 158.176 104.985C155.415 105.582 154.277 108.896 156.089 111.061C158.08 113.44 156.487 117.069 153.386 117.217C150.564 117.352 148.895 120.433 150.326 122.866C151.898 125.541 149.728 128.858 146.646 128.494C143.84 128.163 141.686 130.928 142.696 133.563C143.806 136.46 141.12 139.375 138.139 138.509C135.427 137.721 132.847 140.094 133.409 142.86C134.026 145.899 130.897 148.333 128.099 146.989C125.553 145.765 122.618 147.682 122.716 150.502C122.825 153.602 119.337 155.487 116.799 153.701C114.489 152.076 111.278 153.484 110.911 156.282C110.507 159.357 106.756 160.644 104.547 158.465C102.536 156.482 99.1372 157.342 98.3138 160.041C97.4089 163.008 93.4971 163.66 91.677 161.148C90.0208 158.862 86.5263 159.151 85.2694 161.678C83.8881 164.456 79.9221 164.456 78.5408 161.678C77.2838 159.151 73.7893 158.862 72.1331 161.148C70.3131 163.66 66.4012 163.008 65.4963 160.041C64.6729 157.342 61.2737 156.482 59.2635 158.465C57.0543 160.644 53.3032 159.357 52.8994 156.282C52.532 153.484 49.3209 152.076 47.0114 153.701C44.4733 155.487 40.9854 153.602 41.0937 150.502C41.1924 147.682 38.2568 145.765 35.7111 146.989C32.9134 148.333 29.7837 145.899 30.4013 142.86C30.9632 140.094 28.3834 137.721 25.6709 138.509C22.6899 139.375 20.0038 136.46 21.1137 133.563C22.1237 130.928 19.9699 128.163 17.1646 128.494C14.0816 128.858 11.9125 125.541 13.4844 122.866C14.9148 120.433 13.2459 117.352 10.4243 117.217C7.32339 117.069 5.73028 113.44 7.72142 111.061C9.53323 108.896 8.39468 105.582 5.63374 104.985C2.59954 104.329 1.62595 100.488 3.98196 98.4687C6.12578 96.631 5.54864 93.1755 2.92369 92.1328C0.0389404 90.9868 -0.288567 87.0381 2.36804 85.4334C4.7854 83.9732 4.7854 80.47 2.36804 79.0098C-0.288567 77.4051 0.0389404 73.4564 2.92369 72.3104C5.54864 71.2677 6.12578 67.8122 3.98196 65.9744C1.62595 63.9548 2.59954 60.1137 5.63374 59.4578C8.39468 58.8609 9.53323 55.5475 7.72142 53.3823C5.73028 51.0027 7.32339 47.3742 10.4243 47.2261C13.2459 47.0914 14.9148 44.0104 13.4844 41.5767C11.9125 38.9022 14.0816 35.5851 17.1646 35.949C19.9699 36.2801 22.1237 33.5156 21.1137 30.8799C20.0038 27.9834 22.6899 25.0682 25.6709 25.9341C28.3834 26.722 30.9632 24.3493 30.4013 21.5835C29.7837 18.544 32.9134 16.1103 35.7111 17.4546C38.2568 18.6778 41.1924 16.7617 41.0937 13.9412C40.9854 10.8416 44.4733 8.95573 47.0114 10.7417C49.3209 12.3669 52.532 10.9596 52.8994 8.16139C53.3032 5.0862 57.0543 3.79965 59.2635 5.97864C61.2737 7.96139 64.6729 7.1014 65.4963 4.40175C66.4012 1.4349 70.3131 0.782728 72.1331 3.29528C73.7893 5.58156 77.2838 5.29226 78.5408 2.76483Z" fill="#B1B000"/>
<path d="M28.0422 72.0571H37.2256C38.3545 72.0571 39.4291 72.2035 40.4495 72.4963C41.4699 72.7891 42.4197 73.2012 43.299 73.7326C44.1782 74.264 44.9761 74.9039 45.6925 75.6522C46.409 76.3896 47.0168 77.2139 47.5162 78.1248C48.0264 79.0358 48.4171 80.0173 48.6885 81.0692C48.9599 82.1104 49.0956 83.1949 49.0956 84.3227C49.0956 85.4723 48.9599 86.5731 48.6885 87.625C48.4171 88.677 48.0264 89.6639 47.5162 90.5857C47.0168 91.5075 46.409 92.348 45.6925 93.1072C44.9761 93.8555 44.1782 94.5007 43.299 95.043C42.4197 95.5744 41.4699 95.9865 40.4495 96.2793C39.4291 96.5721 38.3545 96.7185 37.2256 96.7185H28.0422V93.9205H30.3869V74.8713H28.0422V72.0571ZM33.5783 74.8713V93.9205H37.421C38.5607 93.9205 39.63 93.6711 40.6286 93.1722C41.6381 92.6734 42.5174 91.9955 43.2664 91.1388C44.0154 90.2712 44.607 89.2572 45.0412 88.0968C45.4754 86.9255 45.6925 85.6675 45.6925 84.3227C45.6925 82.9996 45.4754 81.7633 45.0412 80.6138C44.607 79.4642 44.0154 78.4664 43.2664 77.6205C42.5174 76.7638 41.6381 76.0914 40.6286 75.6034C39.63 75.1154 38.5607 74.8713 37.421 74.8713H33.5783Z" fill="white"/>
<path d="M54.7619 88.6824C54.7619 89.1596 54.7945 89.5988 54.8596 90.0001C54.9356 90.3905 55.0387 90.7646 55.169 91.1225C55.5706 92.207 56.2111 93.0258 57.0903 93.5789C57.9805 94.1212 58.9846 94.3923 60.1026 94.3923C60.9819 94.3923 61.834 94.273 62.659 94.0344C63.4948 93.785 64.3687 93.4 65.2805 92.8794L66.5017 94.9454C65.3945 95.7045 64.2818 96.2685 63.1638 96.6372C62.0457 97.0059 60.8842 97.1903 59.6793 97.1903C58.5395 97.1903 57.4811 97.0005 56.5042 96.6209C55.5381 96.2413 54.7022 95.6774 53.9967 94.9291C53.3019 94.1808 52.7537 93.2481 52.3521 92.1311C51.9613 91.0141 51.7659 89.7127 51.7659 88.2269C51.7659 87.0231 51.9342 85.8898 52.2707 84.827C52.6072 83.7534 53.1065 82.8207 53.7687 82.029C54.4417 81.2265 55.2721 80.5921 56.2599 80.1257C57.2477 79.6594 58.3984 79.4262 59.7119 79.4262C60.9819 79.4262 62.0403 79.6214 62.887 80.0119C63.7445 80.3914 64.4392 80.9011 64.9711 81.541C65.5139 82.17 65.921 82.8912 66.1923 83.7046C66.4746 84.5179 66.67 85.3476 66.7785 86.1935C66.8328 86.6056 66.8653 87.0231 66.8762 87.4461C66.8979 87.869 66.9088 88.2811 66.9088 88.6824H54.7619ZM59.5002 81.964C58.7946 81.964 58.1759 82.067 57.644 82.273C57.1229 82.4682 56.6779 82.7556 56.3088 83.1352C55.9397 83.5039 55.6412 83.9594 55.4132 84.5017C55.1961 85.0439 55.0333 85.6512 54.9248 86.3236H63.6685C63.6251 85.6946 63.522 85.1144 63.3592 84.583C63.2072 84.0516 62.9684 83.5907 62.6427 83.2003C62.3171 82.8099 61.8991 82.5062 61.389 82.2893C60.8788 82.0724 60.2492 81.964 59.5002 81.964Z" fill="white"/>
<path d="M80.7816 84.3878C80.7816 83.9323 80.673 83.5473 80.4559 83.2328C80.2497 82.9075 79.9783 82.6472 79.6418 82.452C79.3053 82.2459 78.9308 82.0995 78.5183 82.0128C78.1058 81.9151 77.7041 81.8663 77.3134 81.8663C76.8792 81.8663 76.4775 81.9151 76.1084 82.0128C75.7502 82.1104 75.4409 82.2513 75.1803 82.4357C74.9198 82.6201 74.7136 82.8478 74.5616 83.1189C74.4205 83.3792 74.3499 83.672 74.3499 83.9974C74.3499 84.5613 74.5182 85.0114 74.8547 85.3476C75.202 85.6729 75.7774 85.9766 76.5806 86.2586L79.8209 87.3973C81.2103 87.8636 82.2253 88.498 82.8657 89.3006C83.5062 90.1031 83.8264 91.0629 83.8264 92.1799C83.8264 92.9282 83.6744 93.6169 83.3705 94.2459C83.0774 94.864 82.6541 95.3954 82.1004 95.8401C81.5577 96.2739 80.901 96.6101 80.1302 96.8487C79.3595 97.0981 78.502 97.2228 77.5576 97.2228C76.2441 97.2228 75.1749 97.0113 74.3499 96.5884C73.5249 96.1654 72.8899 95.6069 72.4449 94.9128H70.7515V92.1148H74.122C74.122 92.5812 74.2197 92.9824 74.4151 93.3186C74.6213 93.644 74.8872 93.9097 75.2129 94.1157C75.5494 94.3218 75.9239 94.4736 76.3364 94.5712C76.7597 94.6688 77.1885 94.7176 77.6227 94.7176C78.0461 94.7176 78.4531 94.6688 78.8439 94.5712C79.2347 94.4628 79.5766 94.3109 79.8697 94.1157C80.1737 93.9097 80.4125 93.6657 80.5862 93.3837C80.7598 93.1017 80.8467 92.7818 80.8467 92.4239C80.8467 91.8817 80.6676 91.4208 80.3094 91.0412C79.962 90.6616 79.365 90.32 78.5183 90.0163L75.2943 88.8125C73.9808 88.3462 73.0039 87.7552 72.3634 87.0394C71.7338 86.3128 71.419 85.4072 71.419 84.3227C71.419 83.607 71.5493 82.9454 71.8098 82.3381C72.0812 81.7308 72.4666 81.2102 72.9659 80.7764C73.4761 80.3318 74.0948 79.9847 74.8221 79.7353C75.5494 79.4859 76.3798 79.3612 77.3134 79.3612C78.5183 79.3612 79.5278 79.5293 80.3419 79.8654C81.1561 80.2016 81.8888 80.7764 82.5401 81.5898H84.1195V84.3878H80.7816Z" fill="white"/>
<path d="M87.0992 79.8654H92.6027V93.9205H95.1428V96.7185H87.1318V93.9205H89.5416V82.6635H87.0992V79.8654ZM88.9717 73.8953C88.9717 73.6133 89.026 73.3476 89.1345 73.0982C89.2539 72.8379 89.4059 72.6156 89.5904 72.4312C89.7858 72.236 90.0138 72.0842 90.2743 71.9757C90.5348 71.8564 90.8116 71.7968 91.1047 71.7968C91.387 71.7968 91.6529 71.8564 91.9026 71.9757C92.1631 72.0842 92.3856 72.236 92.5702 72.4312C92.7656 72.6156 92.9175 72.8379 93.0261 73.0982C93.1455 73.3476 93.2052 73.6133 93.2052 73.8953C93.2052 74.1881 93.1455 74.4647 93.0261 74.7249C92.9175 74.9852 92.7656 75.2184 92.5702 75.4244C92.3856 75.6196 92.1631 75.7769 91.9026 75.8962C91.6529 76.0046 91.387 76.0589 91.1047 76.0589C90.8116 76.0589 90.5348 76.0046 90.2743 75.8962C90.0138 75.7769 89.7858 75.6196 89.5904 75.4244C89.4059 75.2184 89.2539 74.9852 89.1345 74.7249C89.026 74.4647 88.9717 74.1881 88.9717 73.8953Z" fill="white"/>
<path d="M110.286 95.2382C109.732 95.8238 109.086 96.2793 108.348 96.6047C107.621 96.93 106.79 97.0927 105.857 97.0927C104.717 97.0927 103.653 96.8975 102.665 96.5071C101.688 96.1058 100.836 95.5256 100.109 94.7664C99.3926 93.9964 98.8281 93.0584 98.4156 91.9522C98.014 90.8351 97.8132 89.5609 97.8132 88.1293C97.8132 86.8279 98.0086 85.6458 98.3993 84.583C98.7901 83.5094 99.3437 82.5984 100.06 81.8501C100.777 81.0909 101.64 80.5053 102.649 80.0932C103.659 79.6702 104.782 79.4588 106.02 79.4588C106.866 79.4588 107.626 79.5564 108.299 79.7516C108.983 79.9359 109.645 80.2613 110.286 80.7276V79.8654H113.314V96.0516C113.314 98.7194 112.679 100.737 111.409 102.103C110.15 103.47 108.185 104.153 105.515 104.153C104.929 104.153 104.315 104.109 103.675 104.023C103.034 103.936 102.399 103.795 101.77 103.6C101.151 103.415 100.543 103.177 99.9462 102.884C99.36 102.591 98.8173 102.233 98.3179 101.81L99.9462 99.3539C100.272 99.6358 100.641 99.8961 101.053 100.135C101.477 100.373 101.927 100.574 102.405 100.737C102.882 100.91 103.376 101.046 103.887 101.143C104.397 101.241 104.907 101.29 105.417 101.29C106.253 101.29 106.975 101.203 107.583 101.029C108.201 100.856 108.706 100.547 109.097 100.102C109.499 99.6684 109.797 99.0773 109.993 98.329C110.188 97.5807 110.286 96.6318 110.286 95.4822V95.2382ZM106.248 94.4574C106.747 94.4574 107.203 94.4086 107.615 94.3109C108.028 94.2133 108.402 94.0886 108.739 93.9368C109.075 93.7741 109.368 93.5898 109.618 93.3837C109.879 93.1776 110.101 92.9607 110.286 92.733V83.5094C109.732 83.0213 109.092 82.6689 108.364 82.452C107.648 82.2351 106.91 82.1266 106.15 82.1266C105.433 82.1266 104.76 82.2622 104.131 82.5333C103.501 82.7936 102.948 83.1786 102.47 83.6883C102.003 84.198 101.634 84.8216 101.363 85.5591C101.091 86.2965 100.956 87.1424 100.956 88.0968C100.956 89.1379 101.086 90.0543 101.346 90.846C101.607 91.6377 101.971 92.3046 102.437 92.8469C102.904 93.3783 103.463 93.7795 104.115 94.0507C104.766 94.3218 105.477 94.4574 106.248 94.4574Z" fill="white"/>
<path d="M128.587 93.9205H130.965V86.226C130.965 84.9355 130.633 83.9594 129.971 83.2979C129.32 82.6255 128.381 82.2893 127.154 82.2893C126.449 82.2893 125.738 82.4574 125.021 82.7936C124.305 83.1298 123.627 83.5473 122.986 84.0462V93.9205H125.363V96.7185H117.483V93.9205H119.827V82.6635H117.483V79.8654H122.856V81.8501H122.888C123.247 81.5356 123.627 81.2373 124.028 80.9554C124.441 80.6734 124.869 80.4294 125.315 80.2233C125.76 80.0173 126.221 79.8546 126.699 79.7353C127.187 79.616 127.697 79.5564 128.229 79.5564C129.13 79.5564 129.944 79.6811 130.671 79.9305C131.399 80.18 132.018 80.5595 132.528 81.0692C133.038 81.579 133.429 82.2351 133.7 83.0376C133.982 83.8293 134.123 84.7674 134.123 85.8519V93.9205H136.468V96.7185H128.587V93.9205Z" fill="white"/>
</svg>
