<svg width="388" height="351" viewBox="0 0 388 351" fill="none" xmlns="http://www.w3.org/2000/svg">
<mask id="path-1-outside-1_91_327" maskUnits="userSpaceOnUse" x="0.789062" y="0.236328" width="387" height="351" fill="black">
<rect fill="white" x="0.789062" y="0.236328" width="387" height="351"/>
<path d="M189.696 3.77235C191.568 0.390986 196.429 0.390987 198.301 3.77235L204.661 15.2606C206.352 18.3157 210.6 18.6841 212.792 15.9657L221.306 5.40696C223.74 2.38927 228.545 3.24217 229.791 6.91295L233.843 18.8462C234.973 22.1751 239.13 23.2774 241.761 20.946L252.127 11.7613C255.053 9.16835 259.689 10.8621 260.255 14.731L261.995 26.6413C262.51 30.1635 266.481 31.9891 269.489 30.087L281.282 22.6322C284.63 20.516 288.978 23.0229 288.824 26.9805L288.377 38.4668C288.237 42.0829 291.918 44.6075 295.241 43.1733L307.962 37.6821C311.655 36.0882 315.595 39.3594 314.708 43.2822L312.274 54.0421C311.461 57.6374 314.746 60.8162 318.313 59.8855L331.446 56.4585C335.4 55.4268 338.815 59.3878 337.211 63.1466L333.016 72.9812C331.544 76.4338 334.326 80.197 338.059 79.8012L351.121 78.4162C355.246 77.9789 358.026 82.5288 355.755 85.9992L350.002 94.7928C347.914 97.9844 350.096 102.235 353.907 102.399L366.492 102.939C370.687 103.118 372.742 108.132 369.88 111.204L362.724 118.887C360.091 121.713 361.594 126.331 365.385 127.067L377.184 129.359C381.341 130.166 382.602 135.499 379.247 138.083L370.794 144.593C367.71 146.967 368.476 151.813 372.141 153.121L382.943 156.976C386.949 158.405 387.374 163.901 383.635 165.93L373.965 171.178C370.535 173.039 370.535 177.962 373.965 179.823L383.635 185.07C387.374 187.099 386.949 192.595 382.943 194.025L372.141 197.879C368.476 199.187 367.71 204.033 370.794 206.408L379.247 212.918C382.602 215.501 381.341 220.835 377.184 221.642L365.385 223.933C361.594 224.67 360.091 229.287 362.724 232.113L369.88 239.796C372.742 242.868 370.687 247.882 366.492 248.062L353.907 248.602C350.096 248.765 347.914 253.016 350.002 256.208L355.755 265.001C358.026 268.472 355.246 273.021 351.121 272.584L338.059 271.199C334.326 270.803 331.544 274.567 333.016 278.019L337.211 287.854C338.815 291.613 335.4 295.574 331.446 294.542L318.313 291.115C314.746 290.184 311.461 293.363 312.274 296.958L314.708 307.718C315.595 311.641 311.655 314.912 307.962 313.318L295.24 307.827C291.918 306.393 288.237 308.917 288.377 312.534L288.824 324.02C288.978 327.977 284.63 330.484 281.282 328.368L269.489 320.913C266.481 319.011 262.51 320.837 261.995 324.359L260.255 336.269C259.689 340.138 255.053 341.832 252.127 339.239L241.761 330.054C239.13 327.723 234.973 328.825 233.843 332.154L229.791 344.087C228.545 347.758 223.74 348.611 221.306 345.593L212.792 335.035C210.6 332.316 206.352 332.685 204.661 335.74L198.301 347.228C196.429 350.609 191.568 350.609 189.696 347.228L183.336 335.74C181.645 332.685 177.397 332.316 175.205 335.035L166.691 345.593C164.258 348.611 159.452 347.758 158.206 344.087L154.154 332.154C153.024 328.825 148.867 327.723 146.236 330.054L135.87 339.239C132.944 341.832 128.308 340.138 127.743 336.269L126.002 324.359C125.487 320.837 121.517 319.011 118.508 320.913L106.715 328.368C103.367 330.484 99.0189 327.977 99.1729 324.02L99.62 312.534C99.7607 308.917 96.0794 306.393 92.7568 307.827L80.0352 313.318C76.3427 314.912 72.4023 311.641 73.2895 307.718L75.723 296.958C76.5362 293.363 73.2512 290.184 69.6846 291.115L56.5513 294.542C52.5972 295.574 49.1827 291.613 50.786 287.854L54.9808 278.019C56.4535 274.567 53.6714 270.803 49.9387 271.199L36.8758 272.584C32.7517 273.021 29.9714 268.472 32.2419 265.001L37.9953 256.208C40.0835 253.016 37.9013 248.765 34.0907 248.602L21.5049 248.062C17.3107 247.882 15.2557 242.868 18.117 239.796L25.2738 232.113C27.9058 229.287 26.4035 224.67 22.6127 223.933L10.8133 221.642C6.6566 220.835 5.3954 215.501 8.75024 212.918L17.2037 206.408C20.2873 204.033 19.5215 199.187 15.856 197.879L5.05452 194.025C1.04872 192.595 0.623572 187.099 4.36189 185.07L14.0328 179.823C17.4626 177.962 17.4626 173.039 14.0328 171.178L4.36189 165.93C0.62358 163.901 1.04872 158.405 5.05451 156.976L15.856 153.121C19.5215 151.813 20.2873 146.967 17.2037 144.593L8.75025 138.083C5.3954 135.499 6.65659 130.166 10.8133 129.359L22.6127 127.067C26.4035 126.331 27.9058 121.713 25.2738 118.887L18.117 111.204C15.2557 108.132 17.3107 103.118 21.5049 102.939L34.0907 102.399C37.9013 102.235 40.0835 97.9844 37.9953 94.7928L32.242 85.9992C29.9714 82.5288 32.7517 77.9789 36.8758 78.4162L49.9387 79.8012C53.6714 80.197 56.4535 76.4338 54.9808 72.9812L50.786 63.1466C49.1827 59.3878 52.5972 55.4268 56.5513 56.4585L69.6846 59.8855C73.2512 60.8162 76.5362 57.6373 75.723 54.0421L73.2895 43.2822C72.4023 39.3594 76.3427 36.0882 80.0352 37.6821L92.7568 43.1733C96.0794 44.6075 99.7607 42.0829 99.62 38.4668L99.1729 26.9805C99.0189 23.0229 103.367 20.516 106.715 22.6322L118.508 30.087C121.517 31.9891 125.487 30.1635 126.002 26.6413L127.743 14.731C128.308 10.8622 132.944 9.16835 135.87 11.7613L146.236 20.946C148.867 23.2774 153.024 22.1751 154.154 18.8462L158.206 6.91294C159.452 3.24216 164.258 2.38927 166.691 5.40696L175.205 15.9657C177.397 18.6841 181.645 18.3157 183.336 15.2606L189.696 3.77235Z"/>
<path d="M108.155 142.625H142.092V156.031H135.686V148.031H118.78V163.188H132.999V168.563H118.78V184.625H135.686V176.625H142.092V190H108.155V184.625H112.655V148.031H108.155V142.625Z"/>
<path d="M146.999 157.625H157.311V161.406H157.374C158.082 160.802 158.822 160.24 159.592 159.719C160.384 159.177 161.207 158.709 162.061 158.313C162.915 157.917 163.801 157.604 164.717 157.375C165.655 157.146 166.624 157.031 167.624 157.031C169.957 157.031 171.967 157.469 173.655 158.344C175.342 159.198 176.644 160.542 177.561 162.375C178.353 161.667 179.186 160.99 180.061 160.344C180.936 159.677 181.842 159.104 182.78 158.625C183.738 158.146 184.738 157.761 185.78 157.469C186.822 157.177 187.905 157.031 189.03 157.031C190.78 157.031 192.353 157.271 193.749 157.75C195.144 158.229 196.332 158.959 197.311 159.938C198.29 160.917 199.03 162.177 199.53 163.719C200.051 165.24 200.311 167.042 200.311 169.125V184.625H204.811V190H189.686V184.625H194.249V169.844C194.249 167.365 193.624 165.49 192.374 164.219C191.124 162.927 189.322 162.281 186.967 162.281C185.572 162.281 184.144 162.615 182.686 163.281C181.228 163.948 179.978 164.792 178.936 165.813V184.625H183.405V190H168.311V184.625H172.874V169.844C172.874 167.365 172.238 165.49 170.967 164.219C169.717 162.927 167.915 162.281 165.561 162.281C164.207 162.281 162.842 162.604 161.467 163.25C160.092 163.896 158.79 164.698 157.561 165.656V184.625H162.124V190H146.999V184.625H151.499V163H146.999V157.625Z"/>
<path d="M230.092 187C228.863 188.146 227.499 189.084 225.999 189.813C224.519 190.542 222.832 190.906 220.936 190.906C219.353 190.906 217.894 190.656 216.561 190.156C215.249 189.656 214.113 188.979 213.155 188.125C212.197 187.25 211.447 186.24 210.905 185.094C210.384 183.948 210.124 182.729 210.124 181.438C210.124 180.063 210.322 178.844 210.717 177.781C211.134 176.719 211.676 175.802 212.342 175.031C213.03 174.24 213.822 173.584 214.717 173.063C215.634 172.521 216.582 172.094 217.561 171.781C218.561 171.448 219.572 171.219 220.592 171.094C221.634 170.948 222.624 170.875 223.561 170.875C225.061 170.875 226.322 170.927 227.342 171.031C228.363 171.115 229.29 171.24 230.124 171.406L230.155 168.75C230.155 167.604 229.988 166.615 229.655 165.781C229.322 164.927 228.853 164.229 228.249 163.688C227.644 163.125 226.915 162.709 226.061 162.438C225.228 162.167 224.29 162.031 223.249 162.031C222.269 162.031 221.332 162.104 220.436 162.25C219.54 162.375 218.697 162.552 217.905 162.781C217.134 162.99 216.415 163.24 215.749 163.531C215.103 163.802 214.551 164.094 214.092 164.406L212.186 160.375C212.957 159.875 213.801 159.417 214.717 159C215.634 158.563 216.592 158.198 217.592 157.906C218.613 157.594 219.644 157.354 220.686 157.188C221.749 157 222.79 156.906 223.811 156.906C225.686 156.906 227.374 157.136 228.874 157.594C230.374 158.031 231.644 158.719 232.686 159.656C233.728 160.594 234.53 161.792 235.092 163.25C235.655 164.688 235.936 166.417 235.936 168.438L235.905 184.625H239.499V190H230.092V187ZM222.217 186.031C222.988 186.031 223.759 185.938 224.53 185.75C225.301 185.563 226.03 185.313 226.717 185C227.405 184.667 228.04 184.292 228.624 183.875C229.207 183.438 229.697 182.99 230.092 182.531L230.124 175.219H223.374C222.249 175.219 221.217 175.344 220.28 175.594C219.363 175.844 218.561 176.209 217.874 176.688C217.207 177.167 216.686 177.761 216.311 178.469C215.936 179.177 215.749 179.99 215.749 180.906C215.749 181.761 215.905 182.511 216.217 183.156C216.53 183.781 216.967 184.313 217.53 184.75C218.113 185.167 218.801 185.49 219.592 185.719C220.384 185.927 221.259 186.031 222.217 186.031Z"/>
<path d="M245.811 157.625H256.374V184.625H261.249V190H245.874V184.625H250.499V163H245.811V157.625ZM249.405 146.156C249.405 145.615 249.509 145.104 249.717 144.625C249.947 144.125 250.238 143.698 250.592 143.344C250.967 142.969 251.405 142.677 251.905 142.469C252.405 142.24 252.936 142.125 253.499 142.125C254.04 142.125 254.551 142.24 255.03 142.469C255.53 142.677 255.957 142.969 256.311 143.344C256.686 143.698 256.978 144.125 257.186 144.625C257.415 145.104 257.53 145.615 257.53 146.156C257.53 146.719 257.415 147.25 257.186 147.75C256.978 148.25 256.686 148.698 256.311 149.094C255.957 149.469 255.53 149.771 255.03 150C254.551 150.209 254.04 150.313 253.499 150.313C252.936 150.313 252.405 150.209 251.905 150C251.405 149.771 250.967 149.469 250.592 149.094C250.238 148.698 249.947 148.25 249.717 147.75C249.509 147.25 249.405 146.719 249.405 146.156Z"/>
<path d="M266.374 141.375H276.874V184.625H281.749V190H266.374V184.625H271.061V146.75H266.374V141.375Z"/>
</mask>
<path d="M189.696 3.77235C191.568 0.390986 196.429 0.390987 198.301 3.77235L204.661 15.2606C206.352 18.3157 210.6 18.6841 212.792 15.9657L221.306 5.40696C223.74 2.38927 228.545 3.24217 229.791 6.91295L233.843 18.8462C234.973 22.1751 239.13 23.2774 241.761 20.946L252.127 11.7613C255.053 9.16835 259.689 10.8621 260.255 14.731L261.995 26.6413C262.51 30.1635 266.481 31.9891 269.489 30.087L281.282 22.6322C284.63 20.516 288.978 23.0229 288.824 26.9805L288.377 38.4668C288.237 42.0829 291.918 44.6075 295.241 43.1733L307.962 37.6821C311.655 36.0882 315.595 39.3594 314.708 43.2822L312.274 54.0421C311.461 57.6374 314.746 60.8162 318.313 59.8855L331.446 56.4585C335.4 55.4268 338.815 59.3878 337.211 63.1466L333.016 72.9812C331.544 76.4338 334.326 80.197 338.059 79.8012L351.121 78.4162C355.246 77.9789 358.026 82.5288 355.755 85.9992L350.002 94.7928C347.914 97.9844 350.096 102.235 353.907 102.399L366.492 102.939C370.687 103.118 372.742 108.132 369.88 111.204L362.724 118.887C360.091 121.713 361.594 126.331 365.385 127.067L377.184 129.359C381.341 130.166 382.602 135.499 379.247 138.083L370.794 144.593C367.71 146.967 368.476 151.813 372.141 153.121L382.943 156.976C386.949 158.405 387.374 163.901 383.635 165.93L373.965 171.178C370.535 173.039 370.535 177.962 373.965 179.823L383.635 185.07C387.374 187.099 386.949 192.595 382.943 194.025L372.141 197.879C368.476 199.187 367.71 204.033 370.794 206.408L379.247 212.918C382.602 215.501 381.341 220.835 377.184 221.642L365.385 223.933C361.594 224.67 360.091 229.287 362.724 232.113L369.88 239.796C372.742 242.868 370.687 247.882 366.492 248.062L353.907 248.602C350.096 248.765 347.914 253.016 350.002 256.208L355.755 265.001C358.026 268.472 355.246 273.021 351.121 272.584L338.059 271.199C334.326 270.803 331.544 274.567 333.016 278.019L337.211 287.854C338.815 291.613 335.4 295.574 331.446 294.542L318.313 291.115C314.746 290.184 311.461 293.363 312.274 296.958L314.708 307.718C315.595 311.641 311.655 314.912 307.962 313.318L295.24 307.827C291.918 306.393 288.237 308.917 288.377 312.534L288.824 324.02C288.978 327.977 284.63 330.484 281.282 328.368L269.489 320.913C266.481 319.011 262.51 320.837 261.995 324.359L260.255 336.269C259.689 340.138 255.053 341.832 252.127 339.239L241.761 330.054C239.13 327.723 234.973 328.825 233.843 332.154L229.791 344.087C228.545 347.758 223.74 348.611 221.306 345.593L212.792 335.035C210.6 332.316 206.352 332.685 204.661 335.74L198.301 347.228C196.429 350.609 191.568 350.609 189.696 347.228L183.336 335.74C181.645 332.685 177.397 332.316 175.205 335.035L166.691 345.593C164.258 348.611 159.452 347.758 158.206 344.087L154.154 332.154C153.024 328.825 148.867 327.723 146.236 330.054L135.87 339.239C132.944 341.832 128.308 340.138 127.743 336.269L126.002 324.359C125.487 320.837 121.517 319.011 118.508 320.913L106.715 328.368C103.367 330.484 99.0189 327.977 99.1729 324.02L99.62 312.534C99.7607 308.917 96.0794 306.393 92.7568 307.827L80.0352 313.318C76.3427 314.912 72.4023 311.641 73.2895 307.718L75.723 296.958C76.5362 293.363 73.2512 290.184 69.6846 291.115L56.5513 294.542C52.5972 295.574 49.1827 291.613 50.786 287.854L54.9808 278.019C56.4535 274.567 53.6714 270.803 49.9387 271.199L36.8758 272.584C32.7517 273.021 29.9714 268.472 32.2419 265.001L37.9953 256.208C40.0835 253.016 37.9013 248.765 34.0907 248.602L21.5049 248.062C17.3107 247.882 15.2557 242.868 18.117 239.796L25.2738 232.113C27.9058 229.287 26.4035 224.67 22.6127 223.933L10.8133 221.642C6.6566 220.835 5.3954 215.501 8.75024 212.918L17.2037 206.408C20.2873 204.033 19.5215 199.187 15.856 197.879L5.05452 194.025C1.04872 192.595 0.623572 187.099 4.36189 185.07L14.0328 179.823C17.4626 177.962 17.4626 173.039 14.0328 171.178L4.36189 165.93C0.62358 163.901 1.04872 158.405 5.05451 156.976L15.856 153.121C19.5215 151.813 20.2873 146.967 17.2037 144.593L8.75025 138.083C5.3954 135.499 6.65659 130.166 10.8133 129.359L22.6127 127.067C26.4035 126.331 27.9058 121.713 25.2738 118.887L18.117 111.204C15.2557 108.132 17.3107 103.118 21.5049 102.939L34.0907 102.399C37.9013 102.235 40.0835 97.9844 37.9953 94.7928L32.242 85.9992C29.9714 82.5288 32.7517 77.9789 36.8758 78.4162L49.9387 79.8012C53.6714 80.197 56.4535 76.4338 54.9808 72.9812L50.786 63.1466C49.1827 59.3878 52.5972 55.4268 56.5513 56.4585L69.6846 59.8855C73.2512 60.8162 76.5362 57.6373 75.723 54.0421L73.2895 43.2822C72.4023 39.3594 76.3427 36.0882 80.0352 37.6821L92.7568 43.1733C96.0794 44.6075 99.7607 42.0829 99.62 38.4668L99.1729 26.9805C99.0189 23.0229 103.367 20.516 106.715 22.6322L118.508 30.087C121.517 31.9891 125.487 30.1635 126.002 26.6413L127.743 14.731C128.308 10.8622 132.944 9.16835 135.87 11.7613L146.236 20.946C148.867 23.2774 153.024 22.1751 154.154 18.8462L158.206 6.91294C159.452 3.24216 164.258 2.38927 166.691 5.40696L175.205 15.9657C177.397 18.6841 181.645 18.3157 183.336 15.2606L189.696 3.77235Z" fill="#F1D002"/>
<path d="M108.155 142.625H142.092V156.031H135.686V148.031H118.78V163.188H132.999V168.563H118.78V184.625H135.686V176.625H142.092V190H108.155V184.625H112.655V148.031H108.155V142.625Z" fill="#2F2926"/>
<path d="M146.999 157.625H157.311V161.406H157.374C158.082 160.802 158.822 160.24 159.592 159.719C160.384 159.177 161.207 158.709 162.061 158.313C162.915 157.917 163.801 157.604 164.717 157.375C165.655 157.146 166.624 157.031 167.624 157.031C169.957 157.031 171.967 157.469 173.655 158.344C175.342 159.198 176.644 160.542 177.561 162.375C178.353 161.667 179.186 160.99 180.061 160.344C180.936 159.677 181.842 159.104 182.78 158.625C183.738 158.146 184.738 157.761 185.78 157.469C186.822 157.177 187.905 157.031 189.03 157.031C190.78 157.031 192.353 157.271 193.749 157.75C195.144 158.229 196.332 158.959 197.311 159.938C198.29 160.917 199.03 162.177 199.53 163.719C200.051 165.24 200.311 167.042 200.311 169.125V184.625H204.811V190H189.686V184.625H194.249V169.844C194.249 167.365 193.624 165.49 192.374 164.219C191.124 162.927 189.322 162.281 186.967 162.281C185.572 162.281 184.144 162.615 182.686 163.281C181.228 163.948 179.978 164.792 178.936 165.813V184.625H183.405V190H168.311V184.625H172.874V169.844C172.874 167.365 172.238 165.49 170.967 164.219C169.717 162.927 167.915 162.281 165.561 162.281C164.207 162.281 162.842 162.604 161.467 163.25C160.092 163.896 158.79 164.698 157.561 165.656V184.625H162.124V190H146.999V184.625H151.499V163H146.999V157.625Z" fill="#2F2926"/>
<path d="M230.092 187C228.863 188.146 227.499 189.084 225.999 189.813C224.519 190.542 222.832 190.906 220.936 190.906C219.353 190.906 217.894 190.656 216.561 190.156C215.249 189.656 214.113 188.979 213.155 188.125C212.197 187.25 211.447 186.24 210.905 185.094C210.384 183.948 210.124 182.729 210.124 181.438C210.124 180.063 210.322 178.844 210.717 177.781C211.134 176.719 211.676 175.802 212.342 175.031C213.03 174.24 213.822 173.584 214.717 173.063C215.634 172.521 216.582 172.094 217.561 171.781C218.561 171.448 219.572 171.219 220.592 171.094C221.634 170.948 222.624 170.875 223.561 170.875C225.061 170.875 226.322 170.927 227.342 171.031C228.363 171.115 229.29 171.24 230.124 171.406L230.155 168.75C230.155 167.604 229.988 166.615 229.655 165.781C229.322 164.927 228.853 164.229 228.249 163.688C227.644 163.125 226.915 162.709 226.061 162.438C225.228 162.167 224.29 162.031 223.249 162.031C222.269 162.031 221.332 162.104 220.436 162.25C219.54 162.375 218.697 162.552 217.905 162.781C217.134 162.99 216.415 163.24 215.749 163.531C215.103 163.802 214.551 164.094 214.092 164.406L212.186 160.375C212.957 159.875 213.801 159.417 214.717 159C215.634 158.563 216.592 158.198 217.592 157.906C218.613 157.594 219.644 157.354 220.686 157.188C221.749 157 222.79 156.906 223.811 156.906C225.686 156.906 227.374 157.136 228.874 157.594C230.374 158.031 231.644 158.719 232.686 159.656C233.728 160.594 234.53 161.792 235.092 163.25C235.655 164.688 235.936 166.417 235.936 168.438L235.905 184.625H239.499V190H230.092V187ZM222.217 186.031C222.988 186.031 223.759 185.938 224.53 185.75C225.301 185.563 226.03 185.313 226.717 185C227.405 184.667 228.04 184.292 228.624 183.875C229.207 183.438 229.697 182.99 230.092 182.531L230.124 175.219H223.374C222.249 175.219 221.217 175.344 220.28 175.594C219.363 175.844 218.561 176.209 217.874 176.688C217.207 177.167 216.686 177.761 216.311 178.469C215.936 179.177 215.749 179.99 215.749 180.906C215.749 181.761 215.905 182.511 216.217 183.156C216.53 183.781 216.967 184.313 217.53 184.75C218.113 185.167 218.801 185.49 219.592 185.719C220.384 185.927 221.259 186.031 222.217 186.031Z" fill="#2F2926"/>
<path d="M245.811 157.625H256.374V184.625H261.249V190H245.874V184.625H250.499V163H245.811V157.625ZM249.405 146.156C249.405 145.615 249.509 145.104 249.717 144.625C249.947 144.125 250.238 143.698 250.592 143.344C250.967 142.969 251.405 142.677 251.905 142.469C252.405 142.24 252.936 142.125 253.499 142.125C254.04 142.125 254.551 142.24 255.03 142.469C255.53 142.677 255.957 142.969 256.311 143.344C256.686 143.698 256.978 144.125 257.186 144.625C257.415 145.104 257.53 145.615 257.53 146.156C257.53 146.719 257.415 147.25 257.186 147.75C256.978 148.25 256.686 148.698 256.311 149.094C255.957 149.469 255.53 149.771 255.03 150C254.551 150.209 254.04 150.313 253.499 150.313C252.936 150.313 252.405 150.209 251.905 150C251.405 149.771 250.967 149.469 250.592 149.094C250.238 148.698 249.947 148.25 249.717 147.75C249.509 147.25 249.405 146.719 249.405 146.156Z" fill="#2F2926"/>
<path d="M266.374 141.375H276.874V184.625H281.749V190H266.374V184.625H271.061V146.75H266.374V141.375Z" fill="#2F2926"/>
<path d="M189.696 3.77235C191.568 0.390986 196.429 0.390987 198.301 3.77235L204.661 15.2606C206.352 18.3157 210.6 18.6841 212.792 15.9657L221.306 5.40696C223.74 2.38927 228.545 3.24217 229.791 6.91295L233.843 18.8462C234.973 22.1751 239.13 23.2774 241.761 20.946L252.127 11.7613C255.053 9.16835 259.689 10.8621 260.255 14.731L261.995 26.6413C262.51 30.1635 266.481 31.9891 269.489 30.087L281.282 22.6322C284.63 20.516 288.978 23.0229 288.824 26.9805L288.377 38.4668C288.237 42.0829 291.918 44.6075 295.241 43.1733L307.962 37.6821C311.655 36.0882 315.595 39.3594 314.708 43.2822L312.274 54.0421C311.461 57.6374 314.746 60.8162 318.313 59.8855L331.446 56.4585C335.4 55.4268 338.815 59.3878 337.211 63.1466L333.016 72.9812C331.544 76.4338 334.326 80.197 338.059 79.8012L351.121 78.4162C355.246 77.9789 358.026 82.5288 355.755 85.9992L350.002 94.7928C347.914 97.9844 350.096 102.235 353.907 102.399L366.492 102.939C370.687 103.118 372.742 108.132 369.88 111.204L362.724 118.887C360.091 121.713 361.594 126.331 365.385 127.067L377.184 129.359C381.341 130.166 382.602 135.499 379.247 138.083L370.794 144.593C367.71 146.967 368.476 151.813 372.141 153.121L382.943 156.976C386.949 158.405 387.374 163.901 383.635 165.93L373.965 171.178C370.535 173.039 370.535 177.962 373.965 179.823L383.635 185.07C387.374 187.099 386.949 192.595 382.943 194.025L372.141 197.879C368.476 199.187 367.71 204.033 370.794 206.408L379.247 212.918C382.602 215.501 381.341 220.835 377.184 221.642L365.385 223.933C361.594 224.67 360.091 229.287 362.724 232.113L369.88 239.796C372.742 242.868 370.687 247.882 366.492 248.062L353.907 248.602C350.096 248.765 347.914 253.016 350.002 256.208L355.755 265.001C358.026 268.472 355.246 273.021 351.121 272.584L338.059 271.199C334.326 270.803 331.544 274.567 333.016 278.019L337.211 287.854C338.815 291.613 335.4 295.574 331.446 294.542L318.313 291.115C314.746 290.184 311.461 293.363 312.274 296.958L314.708 307.718C315.595 311.641 311.655 314.912 307.962 313.318L295.24 307.827C291.918 306.393 288.237 308.917 288.377 312.534L288.824 324.02C288.978 327.977 284.63 330.484 281.282 328.368L269.489 320.913C266.481 319.011 262.51 320.837 261.995 324.359L260.255 336.269C259.689 340.138 255.053 341.832 252.127 339.239L241.761 330.054C239.13 327.723 234.973 328.825 233.843 332.154L229.791 344.087C228.545 347.758 223.74 348.611 221.306 345.593L212.792 335.035C210.6 332.316 206.352 332.685 204.661 335.74L198.301 347.228C196.429 350.609 191.568 350.609 189.696 347.228L183.336 335.74C181.645 332.685 177.397 332.316 175.205 335.035L166.691 345.593C164.258 348.611 159.452 347.758 158.206 344.087L154.154 332.154C153.024 328.825 148.867 327.723 146.236 330.054L135.87 339.239C132.944 341.832 128.308 340.138 127.743 336.269L126.002 324.359C125.487 320.837 121.517 319.011 118.508 320.913L106.715 328.368C103.367 330.484 99.0189 327.977 99.1729 324.02L99.62 312.534C99.7607 308.917 96.0794 306.393 92.7568 307.827L80.0352 313.318C76.3427 314.912 72.4023 311.641 73.2895 307.718L75.723 296.958C76.5362 293.363 73.2512 290.184 69.6846 291.115L56.5513 294.542C52.5972 295.574 49.1827 291.613 50.786 287.854L54.9808 278.019C56.4535 274.567 53.6714 270.803 49.9387 271.199L36.8758 272.584C32.7517 273.021 29.9714 268.472 32.2419 265.001L37.9953 256.208C40.0835 253.016 37.9013 248.765 34.0907 248.602L21.5049 248.062C17.3107 247.882 15.2557 242.868 18.117 239.796L25.2738 232.113C27.9058 229.287 26.4035 224.67 22.6127 223.933L10.8133 221.642C6.6566 220.835 5.3954 215.501 8.75024 212.918L17.2037 206.408C20.2873 204.033 19.5215 199.187 15.856 197.879L5.05452 194.025C1.04872 192.595 0.623572 187.099 4.36189 185.07L14.0328 179.823C17.4626 177.962 17.4626 173.039 14.0328 171.178L4.36189 165.93C0.62358 163.901 1.04872 158.405 5.05451 156.976L15.856 153.121C19.5215 151.813 20.2873 146.967 17.2037 144.593L8.75025 138.083C5.3954 135.499 6.65659 130.166 10.8133 129.359L22.6127 127.067C26.4035 126.331 27.9058 121.713 25.2738 118.887L18.117 111.204C15.2557 108.132 17.3107 103.118 21.5049 102.939L34.0907 102.399C37.9013 102.235 40.0835 97.9844 37.9953 94.7928L32.242 85.9992C29.9714 82.5288 32.7517 77.9789 36.8758 78.4162L49.9387 79.8012C53.6714 80.197 56.4535 76.4338 54.9808 72.9812L50.786 63.1466C49.1827 59.3878 52.5972 55.4268 56.5513 56.4585L69.6846 59.8855C73.2512 60.8162 76.5362 57.6373 75.723 54.0421L73.2895 43.2822C72.4023 39.3594 76.3427 36.0882 80.0352 37.6821L92.7568 43.1733C96.0794 44.6075 99.7607 42.0829 99.62 38.4668L99.1729 26.9805C99.0189 23.0229 103.367 20.516 106.715 22.6322L118.508 30.087C121.517 31.9891 125.487 30.1635 126.002 26.6413L127.743 14.731C128.308 10.8622 132.944 9.16835 135.87 11.7613L146.236 20.946C148.867 23.2774 153.024 22.1751 154.154 18.8462L158.206 6.91294C159.452 3.24216 164.258 2.38927 166.691 5.40696L175.205 15.9657C177.397 18.6841 181.645 18.3157 183.336 15.2606L189.696 3.77235Z" stroke="#DE142E" stroke-width="2" mask="url(#path-1-outside-1_91_327)"/>
<path d="M108.155 142.625H142.092V156.031H135.686V148.031H118.78V163.188H132.999V168.563H118.78V184.625H135.686V176.625H142.092V190H108.155V184.625H112.655V148.031H108.155V142.625Z" stroke="#DE142E" stroke-width="2" mask="url(#path-1-outside-1_91_327)"/>
<path d="M146.999 157.625H157.311V161.406H157.374C158.082 160.802 158.822 160.24 159.592 159.719C160.384 159.177 161.207 158.709 162.061 158.313C162.915 157.917 163.801 157.604 164.717 157.375C165.655 157.146 166.624 157.031 167.624 157.031C169.957 157.031 171.967 157.469 173.655 158.344C175.342 159.198 176.644 160.542 177.561 162.375C178.353 161.667 179.186 160.99 180.061 160.344C180.936 159.677 181.842 159.104 182.78 158.625C183.738 158.146 184.738 157.761 185.78 157.469C186.822 157.177 187.905 157.031 189.03 157.031C190.78 157.031 192.353 157.271 193.749 157.75C195.144 158.229 196.332 158.959 197.311 159.938C198.29 160.917 199.03 162.177 199.53 163.719C200.051 165.24 200.311 167.042 200.311 169.125V184.625H204.811V190H189.686V184.625H194.249V169.844C194.249 167.365 193.624 165.49 192.374 164.219C191.124 162.927 189.322 162.281 186.967 162.281C185.572 162.281 184.144 162.615 182.686 163.281C181.228 163.948 179.978 164.792 178.936 165.813V184.625H183.405V190H168.311V184.625H172.874V169.844C172.874 167.365 172.238 165.49 170.967 164.219C169.717 162.927 167.915 162.281 165.561 162.281C164.207 162.281 162.842 162.604 161.467 163.25C160.092 163.896 158.79 164.698 157.561 165.656V184.625H162.124V190H146.999V184.625H151.499V163H146.999V157.625Z" stroke="#DE142E" stroke-width="2" mask="url(#path-1-outside-1_91_327)"/>
<path d="M230.092 187C228.863 188.146 227.499 189.084 225.999 189.813C224.519 190.542 222.832 190.906 220.936 190.906C219.353 190.906 217.894 190.656 216.561 190.156C215.249 189.656 214.113 188.979 213.155 188.125C212.197 187.25 211.447 186.24 210.905 185.094C210.384 183.948 210.124 182.729 210.124 181.438C210.124 180.063 210.322 178.844 210.717 177.781C211.134 176.719 211.676 175.802 212.342 175.031C213.03 174.24 213.822 173.584 214.717 173.063C215.634 172.521 216.582 172.094 217.561 171.781C218.561 171.448 219.572 171.219 220.592 171.094C221.634 170.948 222.624 170.875 223.561 170.875C225.061 170.875 226.322 170.927 227.342 171.031C228.363 171.115 229.29 171.24 230.124 171.406L230.155 168.75C230.155 167.604 229.988 166.615 229.655 165.781C229.322 164.927 228.853 164.229 228.249 163.688C227.644 163.125 226.915 162.709 226.061 162.438C225.228 162.167 224.29 162.031 223.249 162.031C222.269 162.031 221.332 162.104 220.436 162.25C219.54 162.375 218.697 162.552 217.905 162.781C217.134 162.99 216.415 163.24 215.749 163.531C215.103 163.802 214.551 164.094 214.092 164.406L212.186 160.375C212.957 159.875 213.801 159.417 214.717 159C215.634 158.563 216.592 158.198 217.592 157.906C218.613 157.594 219.644 157.354 220.686 157.188C221.749 157 222.79 156.906 223.811 156.906C225.686 156.906 227.374 157.136 228.874 157.594C230.374 158.031 231.644 158.719 232.686 159.656C233.728 160.594 234.53 161.792 235.092 163.25C235.655 164.688 235.936 166.417 235.936 168.438L235.905 184.625H239.499V190H230.092V187ZM222.217 186.031C222.988 186.031 223.759 185.938 224.53 185.75C225.301 185.563 226.03 185.313 226.717 185C227.405 184.667 228.04 184.292 228.624 183.875C229.207 183.438 229.697 182.99 230.092 182.531L230.124 175.219H223.374C222.249 175.219 221.217 175.344 220.28 175.594C219.363 175.844 218.561 176.209 217.874 176.688C217.207 177.167 216.686 177.761 216.311 178.469C215.936 179.177 215.749 179.99 215.749 180.906C215.749 181.761 215.905 182.511 216.217 183.156C216.53 183.781 216.967 184.313 217.53 184.75C218.113 185.167 218.801 185.49 219.592 185.719C220.384 185.927 221.259 186.031 222.217 186.031Z" stroke="#DE142E" stroke-width="2" mask="url(#path-1-outside-1_91_327)"/>
<path d="M245.811 157.625H256.374V184.625H261.249V190H245.874V184.625H250.499V163H245.811V157.625ZM249.405 146.156C249.405 145.615 249.509 145.104 249.717 144.625C249.947 144.125 250.238 143.698 250.592 143.344C250.967 142.969 251.405 142.677 251.905 142.469C252.405 142.24 252.936 142.125 253.499 142.125C254.04 142.125 254.551 142.24 255.03 142.469C255.53 142.677 255.957 142.969 256.311 143.344C256.686 143.698 256.978 144.125 257.186 144.625C257.415 145.104 257.53 145.615 257.53 146.156C257.53 146.719 257.415 147.25 257.186 147.75C256.978 148.25 256.686 148.698 256.311 149.094C255.957 149.469 255.53 149.771 255.03 150C254.551 150.209 254.04 150.313 253.499 150.313C252.936 150.313 252.405 150.209 251.905 150C251.405 149.771 250.967 149.469 250.592 149.094C250.238 148.698 249.947 148.25 249.717 147.75C249.509 147.25 249.405 146.719 249.405 146.156Z" stroke="#DE142E" stroke-width="2" mask="url(#path-1-outside-1_91_327)"/>
<path d="M266.374 141.375H276.874V184.625H281.749V190H266.374V184.625H271.061V146.75H266.374V141.375Z" stroke="#DE142E" stroke-width="2" mask="url(#path-1-outside-1_91_327)"/>
</svg>
