<svg width="180" height="164" viewBox="0 0 180 164" fill="none" xmlns="http://www.w3.org/2000/svg">
<path d="M86.0939 2.31763C87.6991 -0.608479 91.9063 -0.608479 93.5115 2.31763C94.9628 4.96315 98.6416 5.28069 100.526 2.92304L100.726 2.67245C102.774 0.10925 106.85 0.828076 107.896 3.93698C108.845 6.75716 112.371 7.68791 114.591 5.70375L115.098 5.25037C117.501 3.10156 121.331 4.49215 121.793 7.68105C122.214 10.584 125.494 12.0848 127.968 10.5062L128.779 9.98889C131.454 8.28274 134.945 10.2824 134.823 13.4503C134.712 16.3438 137.666 18.359 140.322 17.2017L141.363 16.7484C144.235 15.4976 147.312 18.0348 146.628 21.0889C146.001 23.8861 148.564 26.3524 151.338 25.6218L152.482 25.3206C155.486 24.5296 158.09 27.5294 156.882 30.3885C155.773 33.0125 157.891 35.8619 160.726 35.5586L161.823 35.4413C164.902 35.1119 166.986 38.4979 165.303 41.0944C163.756 43.4801 165.389 46.6419 168.231 46.7649L169.137 46.8041C172.236 46.9383 173.762 50.6336 171.659 52.9125C169.726 55.0068 170.839 58.4077 173.637 58.9561L174.241 59.0745C177.307 59.6754 178.243 63.6013 175.776 65.518C173.512 67.2781 174.078 70.8418 176.778 71.8139L177.024 71.9027C179.997 72.9732 180.314 77.0473 177.543 78.5647C175.003 79.9557 175.003 83.6016 177.543 84.9927C180.314 86.51 179.997 90.5841 177.024 91.6547L176.778 91.7434C174.078 92.7155 173.512 96.2793 175.776 98.0394C178.243 99.956 177.307 103.882 174.241 104.483L173.637 104.601C170.839 105.15 169.726 108.551 171.659 110.645C173.762 112.924 172.236 116.619 169.137 116.753L168.231 116.792C165.389 116.915 163.756 120.077 165.303 122.463C166.986 125.059 164.902 128.445 161.823 128.116L160.726 127.999C157.891 127.695 155.773 130.545 156.882 133.169C158.09 136.028 155.486 139.028 152.482 138.237L151.338 137.936C148.564 137.205 146.001 139.671 146.628 142.468C147.312 145.522 144.235 148.06 141.363 146.809L140.322 146.356C137.666 145.198 134.712 147.214 134.823 150.107C134.945 153.275 131.454 155.275 128.779 153.568L127.968 153.051C125.494 151.473 122.214 152.973 121.793 155.876C121.331 159.065 117.501 160.456 115.098 158.307L114.591 157.854C112.371 155.869 108.845 156.8 107.896 159.62C106.85 162.729 102.774 163.448 100.726 160.885L100.526 160.634C98.6416 158.277 94.9628 158.594 93.5115 161.24C91.9063 164.166 87.6991 164.166 86.0939 161.24C84.6426 158.594 80.9638 158.277 79.0798 160.634L78.8796 160.885C76.8314 163.448 72.7556 162.729 71.7096 159.62C70.7608 156.8 67.2339 155.869 65.0148 157.854L64.5078 158.307C62.1046 160.456 58.274 159.065 57.8122 155.876C57.3917 152.973 54.1114 151.473 51.6369 153.051L50.8259 153.568C48.1514 155.275 44.66 153.275 44.7821 150.107C44.8937 147.214 41.9396 145.198 39.2828 146.356L38.242 146.809C35.3705 148.06 32.2932 145.522 32.9776 142.468C33.6046 139.671 31.0418 137.205 28.2674 137.936L27.1233 138.237C24.1195 139.028 21.5152 136.028 22.7237 133.169C23.8328 130.545 21.7139 127.695 18.8791 127.999L17.7825 128.116C14.7036 128.445 12.6193 125.059 14.3028 122.463C15.8495 120.077 14.2165 116.915 11.3741 116.792L10.4688 116.753C7.36884 116.619 5.84292 112.924 7.94643 110.645C9.87955 108.551 8.76625 105.15 5.96805 104.601L5.36407 104.483C2.29787 103.882 1.36248 99.956 3.82883 98.0394C6.09371 96.2793 5.52697 92.7155 2.82759 91.7434L2.58112 91.6547C-0.391521 90.5841 -0.709061 86.51 2.06189 84.9927C4.60229 83.6016 4.60229 79.9557 2.06189 78.5647C-0.70906 77.0473 -0.39152 72.9732 2.58113 71.9027L2.82759 71.8139C5.52697 70.8418 6.09371 67.2781 3.82884 65.518C1.36248 63.6013 2.29788 59.6754 5.36408 59.0745L5.96805 58.9561C8.76626 58.4077 9.87954 55.0068 7.94643 52.9125C5.84292 50.6336 7.36884 46.9383 10.4688 46.8041L11.3741 46.7649C14.2165 46.6419 15.8495 43.4801 14.3028 41.0944C12.6193 38.4979 14.7036 35.1119 17.7825 35.4413L18.8791 35.5586C21.7139 35.8619 23.8328 33.0125 22.7237 30.3885C21.5152 27.5294 24.1195 24.5296 27.1233 25.3206L28.2674 25.6218C31.0418 26.3524 33.6046 23.8861 32.9776 21.0889C32.2932 18.0348 35.3705 15.4976 38.2421 16.7484L39.2828 17.2017C41.9396 18.359 44.8937 16.3438 44.7821 13.4503C44.66 10.2824 48.1514 8.28274 50.8259 9.98889L51.6369 10.5062C54.1114 12.0848 57.3917 10.584 57.8122 7.68105C58.274 4.49215 62.1046 3.10156 64.5078 5.25037L65.0148 5.70374C67.2339 7.68791 70.7608 6.75716 71.7096 3.93698C72.7556 0.828076 76.8314 0.109246 78.8796 2.67244L79.0798 2.92304C80.9638 5.28068 84.6426 4.96315 86.0939 2.31763Z" fill="#B1B000"/>
<path d="M22.4966 67.2049H28.4072V69.3156H26.6487V83.6024H28.4072V85.701H22.4966V83.6024H24.2551V69.3156H22.4966V67.2049Z" fill="white"/>
<path d="M31.277 66.7168H35.3802V83.6024H37.2853V85.701H31.277V83.6024H33.1088V68.8153H31.277V66.7168Z" fill="white"/>
<path d="M39.4102 66.7168H43.5134V83.6024H45.4185V85.701H39.4102V83.6024H41.242V68.8153H39.4102V66.7168Z" fill="white"/>
<path d="M55.2613 73.0611H59.3401V83.6024H60.7445V85.701H57.0565V84.5297C56.4866 84.9689 55.8638 85.3105 55.188 85.5545C54.5204 85.7986 53.804 85.9206 53.0387 85.9206C52.4037 85.9206 51.8257 85.8311 51.3046 85.6521C50.7917 85.4651 50.3521 85.1804 49.9857 84.7981C49.6275 84.4077 49.3507 83.9156 49.1553 83.3218C48.9599 82.7281 48.8622 82.0204 48.8622 81.1989V75.1596H47.1526V73.0611H51.2314V80.9305C51.2314 81.8984 51.4552 82.6305 51.903 83.1266C52.3508 83.6228 52.9939 83.8709 53.8325 83.8709C54.3291 83.8709 54.8502 83.7814 55.3956 83.6024C55.9492 83.4235 56.4703 83.1754 56.9588 82.8582V75.1596H55.2613V73.0611Z" fill="white"/>
<path d="M71.4299 76.4529C71.4299 76.1113 71.3485 75.8225 71.1857 75.5867C71.031 75.3427 70.8275 75.1474 70.5751 75.001C70.3227 74.8465 70.0418 74.7367 69.7325 74.6716C69.4231 74.5984 69.1219 74.5618 68.8288 74.5618C68.5031 74.5618 68.2019 74.5984 67.9251 74.6716C67.6564 74.7448 67.4244 74.8506 67.229 74.9888C67.0336 75.1271 66.8789 75.2979 66.765 75.5013C66.6591 75.6965 66.6062 75.9161 66.6062 76.1601C66.6062 76.583 66.7324 76.9206 66.9848 77.1727C67.2453 77.4168 67.6768 77.6445 68.2792 77.856L70.7094 78.71C71.7515 79.0598 72.5127 79.5356 72.9931 80.1375C73.4734 80.7394 73.7136 81.4592 73.7136 82.297C73.7136 82.8582 73.5996 83.3747 73.3716 83.8465C73.1518 84.3101 72.8343 84.7086 72.4191 85.0421C72.012 85.3675 71.5195 85.6196 70.9415 85.7986C70.3634 85.9856 69.7203 86.0792 69.012 86.0792C68.0269 86.0792 67.225 85.9206 66.6062 85.6033C65.9875 85.2861 65.5112 84.8672 65.1774 84.3467H63.9074V82.2482H66.4352C66.4352 82.5979 66.5085 82.8989 66.6551 83.151C66.8097 83.395 67.0092 83.5943 67.2534 83.7489C67.5058 83.9034 67.7867 84.0173 68.0961 84.0905C68.4136 84.1637 68.7352 84.2003 69.0608 84.2003C69.3783 84.2003 69.6836 84.1637 69.9767 84.0905C70.2698 84.0091 70.5263 83.8953 70.7461 83.7489C70.974 83.5943 71.1531 83.4113 71.2834 83.1998C71.4137 82.9884 71.4788 82.7484 71.4788 82.48C71.4788 82.0733 71.3445 81.7276 71.0758 81.4429C70.8153 81.1583 70.3675 80.9021 69.7325 80.6743L67.3145 79.7715C66.3294 79.4217 65.5967 78.9784 65.1164 78.4416C64.6442 77.8966 64.4081 77.2175 64.4081 76.4041C64.4081 75.8673 64.5058 75.3711 64.7011 74.9156C64.9047 74.4601 65.1937 74.0697 65.5682 73.7444C65.9508 73.4109 66.4149 73.1506 66.9604 72.9635C67.5058 72.7765 68.1286 72.6829 68.8288 72.6829C69.7325 72.6829 70.4896 72.809 71.1002 73.0611C71.7108 73.3133 72.2603 73.7444 72.7488 74.3544H73.9334V76.4529H71.4299Z" fill="white"/>
<path d="M79.9295 73.0611H82.897V74.9034H79.905L79.8684 82.1994C79.8684 82.6955 79.9254 83.0982 80.0394 83.4072C80.1533 83.7163 80.3365 83.9319 80.5889 84.0539C80.8413 84.1677 81.1262 84.2247 81.4437 84.2247C81.7857 84.2247 82.0869 84.1962 82.3474 84.1393C82.608 84.0742 82.8929 83.9685 83.2023 83.8221L83.7274 85.3471C83.3366 85.5505 82.9255 85.7091 82.494 85.823C82.0625 85.945 81.5537 86.006 80.9675 86.006C80.4139 86.006 79.9295 85.9368 79.5143 85.7986C79.1072 85.6684 78.7612 85.4447 78.4762 85.1275C78.1994 84.8103 77.9918 84.3874 77.8534 83.8587C77.715 83.3218 77.6458 82.6549 77.6458 81.8578L77.6825 74.9034H75.6675V73.0611H77.7069V70.0354L79.9295 68.9861V73.0611Z" fill="white"/>
<path d="M94.6693 75.7331H92.349V74.9522C92.0804 74.9522 91.8036 75.0051 91.5186 75.1108C91.2418 75.2084 90.9813 75.363 90.737 75.5745C90.4928 75.7778 90.2771 76.0422 90.0898 76.3675C89.9107 76.6847 89.7804 77.0629 89.699 77.5022V83.6024H91.8483V85.701H85.5714V83.6024H87.3177L87.3299 75.1596H85.5714V73.0611H89.6135V74.8058C89.7601 74.5455 89.9229 74.3056 90.102 74.086C90.2893 73.8582 90.4928 73.663 90.7126 73.5004C90.9406 73.3296 91.1889 73.1994 91.4576 73.1099C91.7344 73.0123 92.0315 72.9635 92.349 72.9635C92.7724 72.9635 93.1713 72.9635 93.5458 72.9635C93.9203 72.9635 94.2948 72.9717 94.6693 72.9879V75.7331Z" fill="white"/>
<path d="M104.732 84.5297C104.252 84.977 103.718 85.3431 103.132 85.6277C102.554 85.9124 101.895 86.0548 101.154 86.0548C100.535 86.0548 99.9652 85.9572 99.4442 85.762C98.9313 85.5667 98.4876 85.3024 98.1131 84.9689C97.7386 84.6273 97.4455 84.2328 97.2338 83.7855C97.0303 83.3381 96.9285 82.8623 96.9285 82.358C96.9285 81.8212 97.0059 81.3453 97.1605 80.9305C97.3234 80.5157 97.535 80.1578 97.7956 79.8569C98.0642 79.5478 98.3736 79.2916 98.7237 79.0882C99.0819 78.8768 99.4523 78.71 99.835 78.588C100.226 78.4579 100.621 78.3684 101.02 78.3196C101.427 78.2627 101.813 78.2342 102.18 78.2342C102.766 78.2342 103.258 78.2545 103.657 78.2952C104.056 78.3277 104.419 78.3765 104.744 78.4416L104.756 77.4046C104.756 76.9572 104.691 76.5708 104.561 76.2455C104.431 75.912 104.248 75.6395 104.011 75.4281C103.775 75.2084 103.49 75.0458 103.157 74.94C102.831 74.8343 102.465 74.7814 102.058 74.7814C101.675 74.7814 101.309 74.8099 100.958 74.8668C100.608 74.9156 100.279 74.9848 99.9693 75.0742C99.6681 75.1556 99.3872 75.2532 99.1267 75.3671C98.8743 75.4728 98.6585 75.5867 98.4794 75.7087L97.7345 74.1348C98.0357 73.9396 98.3655 73.7606 98.7237 73.598C99.0819 73.4272 99.4564 73.2848 99.8472 73.1709C100.246 73.0489 100.649 72.9554 101.056 72.8903C101.471 72.8171 101.878 72.7805 102.277 72.7805C103.01 72.7805 103.67 72.87 104.256 73.0489C104.842 73.2197 105.338 73.4882 105.746 73.8542C106.153 74.2202 106.466 74.6879 106.686 75.2572C106.906 75.8185 107.016 76.4936 107.016 77.2825L107.003 83.6024H108.408V85.701H104.732V84.5297ZM101.655 84.1515C101.956 84.1515 102.257 84.1149 102.558 84.0417C102.859 83.9685 103.144 83.8709 103.413 83.7489C103.682 83.6187 103.93 83.4723 104.158 83.3096C104.386 83.1388 104.577 82.964 104.732 82.785L104.744 79.9301H102.106C101.667 79.9301 101.264 79.9789 100.897 80.0765C100.539 80.1741 100.226 80.3164 99.9571 80.5035C99.6966 80.6906 99.493 80.9224 99.3465 81.1989C99.1999 81.4755 99.1267 81.7927 99.1267 82.1506C99.1267 82.4841 99.1877 82.7769 99.3098 83.029C99.432 83.273 99.6029 83.4804 99.8227 83.6513C100.051 83.8139 100.319 83.94 100.629 84.0295C100.938 84.1108 101.28 84.1515 101.655 84.1515Z" fill="white"/>
<path d="M114.636 73.0611H117.603V74.9034H114.611L114.575 82.1994C114.575 82.6955 114.632 83.0982 114.746 83.4072C114.86 83.7163 115.043 83.9319 115.295 84.0539C115.548 84.1677 115.833 84.2247 116.15 84.2247C116.492 84.2247 116.793 84.1962 117.054 84.1393C117.314 84.0742 117.599 83.9685 117.909 83.8221L118.434 85.3471C118.043 85.5505 117.632 85.7091 117.2 85.823C116.769 85.945 116.26 86.006 115.674 86.006C115.12 86.006 114.636 85.9368 114.221 85.7986C113.814 85.6684 113.468 85.4447 113.183 85.1275C112.906 84.8103 112.698 84.3874 112.56 83.8587C112.421 83.3218 112.352 82.6549 112.352 81.8578L112.389 74.9034H110.374V73.0611H112.413V70.0354L114.636 68.9861V73.0611Z" fill="white"/>
<path d="M120.18 73.0611H124.308V83.6024H126.213V85.701H120.205V83.6024H122.012V75.1596H120.18V73.0611ZM121.584 68.5835C121.584 68.372 121.625 68.1728 121.707 67.9857C121.796 67.7905 121.91 67.6237 122.049 67.4855C122.195 67.3391 122.366 67.2252 122.561 67.1439C122.757 67.0544 122.964 67.0096 123.184 67.0096C123.396 67.0096 123.595 67.0544 123.783 67.1439C123.978 67.2252 124.145 67.3391 124.283 67.4855C124.43 67.6237 124.544 67.7905 124.625 67.9857C124.715 68.1728 124.76 68.372 124.76 68.5835C124.76 68.8031 124.715 69.0105 124.625 69.2058C124.544 69.401 124.43 69.5758 124.283 69.7304C124.145 69.8768 123.978 69.9947 123.783 70.0842C123.595 70.1655 123.396 70.2062 123.184 70.2062C122.964 70.2062 122.757 70.1655 122.561 70.0842C122.366 69.9947 122.195 69.8768 122.049 69.7304C121.91 69.5758 121.796 69.401 121.707 69.2058C121.625 69.0105 121.584 68.8031 121.584 68.5835Z" fill="white"/>
<path d="M128.142 79.381C128.15 78.3806 128.309 77.4696 128.619 76.6481C128.936 75.8266 129.376 75.123 129.937 74.5374C130.499 73.9436 131.167 73.4882 131.94 73.1709C132.714 72.8537 133.564 72.6951 134.493 72.6951C135.429 72.6951 136.284 72.8537 137.057 73.1709C137.839 73.4882 138.506 73.9396 139.06 74.5252C139.613 75.1027 140.045 75.8022 140.354 76.6237C140.664 77.4452 140.818 78.3562 140.818 79.3566C140.818 80.3408 140.664 81.2477 140.354 82.0774C140.045 82.8989 139.613 83.6065 139.06 84.2003C138.506 84.794 137.839 85.2577 137.057 85.5911C136.284 85.9165 135.429 86.0792 134.493 86.0792C133.54 86.0792 132.677 85.9165 131.904 85.5911C131.13 85.2658 130.467 84.8103 129.913 84.2247C129.359 83.6309 128.928 82.9233 128.619 82.1018C128.309 81.2803 128.15 80.3734 128.142 79.381ZM130.548 79.381C130.548 80.1049 130.65 80.7597 130.853 81.3453C131.065 81.931 131.35 82.4312 131.708 82.846C132.075 83.2527 132.494 83.5699 132.966 83.7977C133.446 84.0173 133.955 84.1271 134.493 84.1271C135.054 84.1271 135.575 84.0173 136.056 83.7977C136.544 83.578 136.967 83.2649 137.326 82.8582C137.684 82.4434 137.965 81.9432 138.168 81.3575C138.372 80.7719 138.474 80.1131 138.474 79.381C138.474 78.6165 138.372 77.9373 138.168 77.3435C137.965 76.7498 137.684 76.2536 137.326 75.8551C136.976 75.4565 136.556 75.1556 136.068 74.9522C135.579 74.7489 135.054 74.6472 134.493 74.6472C133.955 74.6472 133.446 74.7489 132.966 74.9522C132.494 75.1556 132.075 75.4565 131.708 75.8551C131.35 76.2536 131.065 76.7498 130.853 77.3435C130.65 77.9373 130.548 78.6165 130.548 79.381Z" fill="white"/>
<path d="M151.614 83.6024H153.397V77.8316C153.397 76.8637 153.148 76.1316 152.652 75.6355C152.163 75.1312 151.459 74.879 150.539 74.879C150.01 74.879 149.477 75.0051 148.939 75.2572C148.402 75.5094 147.893 75.8225 147.413 76.1967V83.6024H149.196V85.701H143.285V83.6024H145.044V75.1596H143.285V73.0611H147.315V74.5496H147.339C147.608 74.3137 147.893 74.0901 148.194 73.8786C148.504 73.6671 148.825 73.4841 149.159 73.3296C149.493 73.175 149.839 73.053 150.197 72.9635C150.563 72.8741 150.946 72.8293 151.345 72.8293C152.021 72.8293 152.631 72.9229 153.177 73.1099C153.722 73.297 154.186 73.5817 154.569 73.964C154.952 74.3463 155.245 74.8384 155.448 75.4403C155.66 76.034 155.766 76.7376 155.766 77.551V83.6024H157.524V85.701H151.614V83.6024Z" fill="white"/>
</svg>
