<svg width="386" height="349" viewBox="0 0 386 349" fill="none" xmlns="http://www.w3.org/2000/svg">
<path d="M188.696 2.77235C190.568 -0.609014 195.429 -0.609013 197.301 2.77235L203.661 14.2606C205.352 17.3157 209.6 17.6841 211.792 14.9657L220.306 4.40696C222.74 1.38927 227.545 2.24217 228.791 5.91295L232.843 17.8462C233.973 21.1751 238.13 22.2774 240.761 19.946L251.127 10.7613C254.053 8.16835 258.689 9.86215 259.255 13.731L260.995 25.6413C261.51 29.1635 265.481 30.9891 268.489 29.087L280.282 21.6322C283.63 19.516 287.978 22.0229 287.824 25.9805L287.377 37.4668C287.237 41.0829 290.918 43.6075 294.241 42.1733L306.962 36.6821C310.655 35.0882 314.595 38.3594 313.708 42.2822L311.274 53.0421C310.461 56.6374 313.746 59.8162 317.313 58.8855L330.446 55.4585C334.4 54.4268 337.815 58.3878 336.211 62.1466L332.016 71.9812C330.544 75.4338 333.326 79.197 337.059 78.8012L350.121 77.4162C354.246 76.9789 357.026 81.5288 354.755 84.9992L349.002 93.7928C346.914 96.9844 349.096 101.235 352.907 101.399L365.492 101.939C369.687 102.118 371.742 107.132 368.88 110.204L361.724 117.887C359.091 120.713 360.594 125.331 364.385 126.067L376.184 128.359C380.341 129.166 381.602 134.499 378.247 137.083L369.794 143.593C366.71 145.967 367.476 150.813 371.141 152.121L381.943 155.976C385.949 157.405 386.374 162.901 382.635 164.93L372.965 170.178C369.535 172.039 369.535 176.962 372.965 178.823L382.635 184.07C386.374 186.099 385.949 191.595 381.943 193.025L371.141 196.879C367.476 198.187 366.71 203.033 369.794 205.408L378.247 211.918C381.602 214.501 380.341 219.835 376.184 220.642L364.385 222.933C360.594 223.67 359.091 228.287 361.724 231.113L368.88 238.796C371.742 241.868 369.687 246.882 365.492 247.062L352.907 247.602C349.096 247.765 346.914 252.016 349.002 255.208L354.755 264.001C357.026 267.472 354.246 272.021 350.121 271.584L337.059 270.199C333.326 269.803 330.544 273.567 332.016 277.019L336.211 286.854C337.815 290.613 334.4 294.574 330.446 293.542L317.313 290.115C313.746 289.184 310.461 292.363 311.274 295.958L313.708 306.718C314.595 310.641 310.655 313.912 306.962 312.318L294.24 306.827C290.918 305.393 287.237 307.917 287.377 311.534L287.824 323.02C287.978 326.977 283.63 329.484 280.282 327.368L268.489 319.913C265.481 318.011 261.51 319.837 260.995 323.359L259.255 335.269C258.689 339.138 254.053 340.832 251.127 338.239L240.761 329.054C238.13 326.723 233.973 327.825 232.843 331.154L228.791 343.087C227.545 346.758 222.74 347.611 220.306 344.593L211.792 334.035C209.6 331.316 205.352 331.685 203.661 334.74L197.301 346.228C195.429 349.609 190.568 349.609 188.696 346.228L182.336 334.74C180.645 331.685 176.397 331.316 174.205 334.035L165.691 344.593C163.258 347.611 158.452 346.758 157.206 343.087L153.154 331.154C152.024 327.825 147.867 326.723 145.236 329.054L134.87 338.239C131.944 340.832 127.308 339.138 126.743 335.269L125.002 323.359C124.487 319.837 120.517 318.011 117.508 319.913L105.715 327.368C102.367 329.484 98.0189 326.977 98.1729 323.02L98.62 311.534C98.7607 307.917 95.0794 305.393 91.7568 306.827L79.0352 312.318C75.3427 313.912 71.4023 310.641 72.2895 306.718L74.723 295.958C75.5362 292.363 72.2512 289.184 68.6846 290.115L55.5513 293.542C51.5972 294.574 48.1827 290.613 49.786 286.854L53.9808 277.019C55.4535 273.567 52.6714 269.803 48.9387 270.199L35.8758 271.584C31.7517 272.021 28.9714 267.472 31.2419 264.001L36.9953 255.208C39.0835 252.016 36.9013 247.765 33.0907 247.602L20.5049 247.062C16.3107 246.882 14.2557 241.868 17.117 238.796L24.2738 231.113C26.9058 228.287 25.4035 223.67 21.6127 222.933L9.81328 220.642C5.6566 219.835 4.3954 214.501 7.75024 211.918L16.2037 205.408C19.2873 203.033 18.5215 198.187 14.856 196.879L4.05452 193.025C0.0487225 191.595 -0.376428 186.099 3.36189 184.07L13.0328 178.823C16.4626 176.962 16.4626 172.039 13.0328 170.178L3.36189 164.93C-0.37642 162.901 0.0487192 157.405 4.05451 155.976L14.856 152.121C18.5215 150.813 19.2873 145.967 16.2037 143.593L7.75025 137.083C4.3954 134.499 5.65659 129.166 9.81327 128.359L21.6127 126.067C25.4035 125.331 26.9058 120.713 24.2738 117.887L17.117 110.204C14.2557 107.132 16.3107 102.118 20.5049 101.939L33.0907 101.399C36.9013 101.235 39.0835 96.9844 36.9953 93.7928L31.242 84.9992C28.9714 81.5288 31.7517 76.9789 35.8758 77.4162L48.9387 78.8012C52.6714 79.197 55.4535 75.4338 53.9808 71.9812L49.786 62.1466C48.1827 58.3878 51.5972 54.4268 55.5513 55.4585L68.6846 58.8855C72.2512 59.8162 75.5362 56.6373 74.723 53.0421L72.2895 42.2822C71.4023 38.3594 75.3427 35.0882 79.0352 36.6821L91.7568 42.1733C95.0794 43.6075 98.7607 41.0829 98.62 37.4668L98.1729 25.9805C98.0189 22.0229 102.367 19.516 105.715 21.6322L117.508 29.087C120.517 30.9891 124.487 29.1635 125.002 25.6413L126.743 13.731C127.308 9.86215 131.944 8.16835 134.87 10.7613L145.236 19.946C147.867 22.2774 152.024 21.1751 153.154 17.8462L157.206 5.91294C158.452 2.24216 163.258 1.38927 165.691 4.40696L174.205 14.9657C176.397 17.6841 180.645 17.3157 182.336 14.2606L188.696 2.77235Z" fill="#B1B000"/>
<path d="M54.4362 141.625H69.8112V147.031H65.0612V183.625H81.4049C81.7382 183.625 82.0716 183.552 82.4049 183.406C82.7382 183.24 83.0403 183.031 83.3112 182.781C83.582 182.531 83.8007 182.25 83.9674 181.938C84.1341 181.604 84.2174 181.271 84.2174 180.938V174.969H90.1549V189H54.4362V183.625H58.9362V147.031H54.4362V141.625Z" fill="white"/>
<path d="M93.3424 156.625H103.905V183.625H108.78V189H93.4049V183.625H98.0299V162H93.3424V156.625ZM96.9362 145.156C96.9362 144.615 97.0403 144.104 97.2487 143.625C97.4778 143.125 97.7695 142.698 98.1237 142.344C98.4987 141.969 98.9362 141.677 99.4362 141.469C99.9362 141.24 100.467 141.125 101.03 141.125C101.572 141.125 102.082 141.24 102.561 141.469C103.061 141.677 103.488 141.969 103.842 142.344C104.217 142.698 104.509 143.125 104.717 143.625C104.947 144.104 105.061 144.615 105.061 145.156C105.061 145.719 104.947 146.25 104.717 146.75C104.509 147.25 104.217 147.698 103.842 148.094C103.488 148.469 103.061 148.771 102.561 149C102.082 149.208 101.572 149.313 101.03 149.313C100.467 149.313 99.9362 149.208 99.4362 149C98.9362 148.771 98.4987 148.469 98.1237 148.094C97.7695 147.698 97.4778 147.25 97.2487 146.75C97.0403 146.25 96.9362 145.719 96.9362 145.156Z" fill="white"/>
<path d="M135.467 183.625H140.03V168.844C140.03 166.365 139.394 164.49 138.124 163.219C136.874 161.927 135.072 161.281 132.717 161.281C131.363 161.281 129.999 161.604 128.624 162.25C127.249 162.896 125.947 163.698 124.717 164.656V183.625H129.28V189H114.155V183.625H118.655V162H114.155V156.625H124.467V160.438H124.53C125.217 159.833 125.947 159.261 126.717 158.719C127.509 158.177 128.332 157.708 129.186 157.313C130.04 156.917 130.926 156.604 131.842 156.375C132.78 156.146 133.759 156.031 134.78 156.031C136.509 156.031 138.072 156.271 139.467 156.75C140.863 157.229 142.051 157.958 143.03 158.938C144.009 159.917 144.759 161.177 145.28 162.719C145.822 164.24 146.092 166.042 146.092 168.125V183.625H150.592V189H135.467V183.625Z" fill="white"/>
<path d="M156.592 140.375H167.999V145.75H167.936V169.938H173.561L181.249 162H179.311V156.625H191.592V162H187.499L177.655 172.156L188.405 183.625H192.311V189H185.467L172.217 174.531H167.936V183.625H170.624V189H156.78V183.625H162.092V145.75H156.592V140.375Z" fill="white"/>
<path d="M202.53 173.563C202.53 174.479 202.592 175.323 202.717 176.094C202.863 176.844 203.061 177.563 203.311 178.25C204.082 180.333 205.311 181.906 206.999 182.969C208.707 184.011 210.634 184.531 212.78 184.531C214.467 184.531 216.103 184.302 217.686 183.844C219.29 183.365 220.967 182.625 222.717 181.625L225.061 185.594C222.936 187.052 220.801 188.136 218.655 188.844C216.509 189.552 214.28 189.906 211.967 189.906C209.78 189.906 207.749 189.542 205.874 188.813C204.019 188.083 202.415 187 201.061 185.563C199.728 184.125 198.676 182.333 197.905 180.188C197.155 178.042 196.78 175.542 196.78 172.688C196.78 170.375 197.103 168.198 197.749 166.156C198.394 164.094 199.353 162.302 200.624 160.781C201.915 159.24 203.509 158.021 205.405 157.125C207.301 156.229 209.509 155.781 212.03 155.781C214.467 155.781 216.499 156.156 218.124 156.906C219.769 157.636 221.103 158.615 222.124 159.844C223.165 161.052 223.947 162.438 224.467 164C225.009 165.563 225.384 167.156 225.592 168.781C225.697 169.573 225.759 170.375 225.78 171.188C225.822 172 225.842 172.792 225.842 173.563H202.53ZM211.624 160.656C210.269 160.656 209.082 160.854 208.061 161.25C207.061 161.625 206.207 162.177 205.499 162.906C204.79 163.615 204.217 164.49 203.78 165.531C203.363 166.573 203.051 167.74 202.842 169.031H219.624C219.54 167.823 219.342 166.708 219.03 165.688C218.738 164.667 218.28 163.781 217.655 163.031C217.03 162.281 216.228 161.698 215.249 161.281C214.269 160.865 213.061 160.656 211.624 160.656Z" fill="white"/>
<path d="M252.874 140.375H263.092V183.625H267.842V189H257.28V186.344C256.238 187.406 255.03 188.24 253.655 188.844C252.28 189.427 250.717 189.719 248.967 189.719C246.78 189.719 244.738 189.344 242.842 188.594C240.967 187.823 239.332 186.708 237.936 185.25C236.561 183.771 235.478 181.969 234.686 179.844C233.915 177.698 233.53 175.25 233.53 172.5C233.53 170 233.905 167.729 234.655 165.688C235.405 163.625 236.467 161.875 237.842 160.438C239.217 158.979 240.874 157.854 242.811 157.063C244.749 156.25 246.905 155.844 249.28 155.844C250.842 155.844 252.269 156.021 253.561 156.375C254.853 156.708 256.092 157.302 257.28 158.156V145.75H252.874V140.375ZM249.717 184.656C251.447 184.656 252.894 184.406 254.061 183.906C255.228 183.386 256.301 182.615 257.28 181.594V163.469C256.238 162.594 255.04 161.958 253.686 161.563C252.332 161.167 250.947 160.969 249.53 160.969C248.155 160.969 246.863 161.229 245.655 161.75C244.447 162.25 243.384 162.99 242.467 163.969C241.572 164.948 240.863 166.146 240.342 167.563C239.822 168.979 239.561 170.604 239.561 172.438C239.561 174.438 239.811 176.198 240.311 177.719C240.811 179.24 241.509 180.521 242.405 181.563C243.301 182.583 244.374 183.354 245.624 183.875C246.874 184.396 248.238 184.656 249.717 184.656Z" fill="white"/>
<path d="M274.749 141.625H289.874V147.031H285.374V183.625H289.874V189H274.749V183.625H279.249V147.031H274.749V141.625Z" fill="white"/>
<path d="M318.78 183.625H323.342V168.844C323.342 166.365 322.707 164.49 321.436 163.219C320.186 161.927 318.384 161.281 316.03 161.281C314.676 161.281 313.311 161.604 311.936 162.25C310.561 162.896 309.259 163.698 308.03 164.656V183.625H312.592V189H297.467V183.625H301.967V162H297.467V156.625H307.78V160.438H307.842C308.53 159.833 309.259 159.261 310.03 158.719C310.822 158.177 311.645 157.708 312.499 157.313C313.353 156.917 314.238 156.604 315.155 156.375C316.092 156.146 317.072 156.031 318.092 156.031C319.822 156.031 321.384 156.271 322.78 156.75C324.176 157.229 325.363 157.958 326.342 158.938C327.322 159.917 328.072 161.177 328.592 162.719C329.134 164.24 329.405 166.042 329.405 168.125V183.625H333.905V189H318.78V183.625Z" fill="white"/>
</svg>
