<svg width="189" height="193" viewBox="0 0 189 193" fill="none" xmlns="http://www.w3.org/2000/svg">
<path d="M7.85938 1.9375H34.2969C37.5469 1.9375 40.6406 2.35938 43.5781 3.20312C46.5156 4.04688 49.25 5.23438 51.7812 6.76562C54.3125 8.29688 56.6094 10.1406 58.6719 12.2969C60.7344 14.4219 62.4844 16.7969 63.9219 19.4219C65.3906 22.0469 66.5156 24.875 67.2969 27.9062C68.0781 30.9062 68.4688 34.0312 68.4688 37.2812C68.4688 40.5938 68.0781 43.7656 67.2969 46.7969C66.5156 49.8281 65.3906 52.6719 63.9219 55.3281C62.4844 57.9844 60.7344 60.4062 58.6719 62.5938C56.6094 64.75 54.3125 66.6094 51.7812 68.1719C49.25 69.7031 46.5156 70.8906 43.5781 71.7344C40.6406 72.5781 37.5469 73 34.2969 73H7.85938V64.9375H14.6094V10.0469H7.85938V1.9375ZM23.7969 10.0469V64.9375H34.8594C38.1406 64.9375 41.2188 64.2188 44.0938 62.7812C47 61.3438 49.5312 59.3906 51.6875 56.9219C53.8438 54.4219 55.5469 51.5 56.7969 48.1562C58.0469 44.7812 58.6719 41.1562 58.6719 37.2812C58.6719 33.4688 58.0469 29.9062 56.7969 26.5938C55.5469 23.2812 53.8438 20.4062 51.6875 17.9688C49.5312 15.5 47 13.5625 44.0938 12.1562C41.2188 10.75 38.1406 10.0469 34.8594 10.0469H23.7969Z" fill="#7B8400"/>
<path d="M78.5469 1.9375H129.453V22.0469H119.844V10.0469H94.4844V32.7812H115.812V40.8438H94.4844V64.9375H119.844V52.9375H129.453V73H78.5469V64.9375H85.2969V10.0469H78.5469V1.9375Z" fill="#7B8400"/>
<path d="M175.25 21.25C175.25 18.5 174.75 16.4375 173.75 15.0625C172.75 13.6875 171.641 12.6406 170.422 11.9219C169.234 11.1719 167.922 10.6094 166.484 10.2344C165.047 9.82812 163.609 9.625 162.172 9.625C159.797 9.625 157.719 9.90625 155.938 10.4688C154.156 11 152.672 11.7344 151.484 12.6719C150.328 13.6094 149.453 14.7031 148.859 15.9531C148.266 17.2031 147.969 18.5156 147.969 19.8906C147.969 21.9531 148.328 23.625 149.047 24.9062C149.797 26.1562 150.734 27.1719 151.859 27.9531C152.984 28.7031 154.219 29.2969 155.562 29.7344C156.938 30.1719 158.25 30.6094 159.5 31.0469L168.969 34.1406C171.812 35.0469 174.312 36.0781 176.469 37.2344C178.656 38.3906 180.484 39.7656 181.953 41.3594C183.422 42.9219 184.531 44.7344 185.281 46.7969C186.062 48.8594 186.453 51.25 186.453 53.9688C186.453 56.9062 185.844 59.625 184.625 62.125C183.438 64.625 181.766 66.7969 179.609 68.6406C177.453 70.4844 174.875 71.9375 171.875 73C168.906 74.0312 165.641 74.5469 162.078 74.5469C158.422 74.5469 155.297 74.125 152.703 73.2812C150.109 72.4688 147.922 71.375 146.141 70C144.391 68.5938 142.984 67 141.922 65.2188C140.859 63.4375 140.031 61.6094 139.438 59.7344H135.875V51.6719H147.688C147.688 55.1406 148.047 57.5938 148.766 59.0312C149.516 60.4688 150.547 61.6719 151.859 62.6406C153.172 63.5781 154.734 64.2969 156.547 64.7969C158.359 65.2656 160.359 65.5 162.547 65.5C164.672 65.5 166.578 65.25 168.266 64.75C169.984 64.25 171.438 63.5312 172.625 62.5938C173.844 61.625 174.766 60.4688 175.391 59.125C176.047 57.75 176.375 56.2031 176.375 54.4844C176.375 52.5781 175.969 50.9688 175.156 49.6562C174.375 48.3125 173.359 47.1719 172.109 46.2344C170.859 45.2969 169.484 44.5312 167.984 43.9375C166.516 43.3438 165.094 42.8281 163.719 42.3906L153.453 39.4844C151.203 38.7969 149.141 37.9219 147.266 36.8594C145.422 35.7969 143.828 34.5 142.484 32.9688C141.172 31.4375 140.156 29.6562 139.438 27.625C138.719 25.5625 138.359 23.1875 138.359 20.5C138.359 17.7812 138.891 15.2344 139.953 12.8594C141.016 10.4844 142.578 8.40625 144.641 6.625C146.703 4.84375 149.219 3.45312 152.188 2.45312C155.188 1.42188 158.609 0.90625 162.453 0.90625C164.984 0.90625 167.312 1.20312 169.438 1.79688C171.594 2.39062 173.531 3.23438 175.25 4.32812C177 5.39062 178.531 6.6875 179.844 8.21875C181.188 9.71875 182.312 11.375 183.219 13.1875H186.734V21.25H175.25Z" fill="#7B8400"/>
<path d="M6.125 120.938H28.8125V129.047H22.0625V183.938H28.8125V192H6.125V183.938H12.875V129.047H6.125V120.938Z" fill="#7B8400"/>
<path d="M97.0625 192.281V178.031C95.875 180.5 94.3906 182.656 92.6094 184.5C90.8281 186.312 88.8438 187.812 86.6562 189C84.4688 190.188 82.125 191.078 79.625 191.672C77.1562 192.266 74.6406 192.562 72.0781 192.562C67.4531 192.562 63.1875 191.797 59.2812 190.266C55.375 188.703 51.8281 186.234 48.6406 182.859C45.4844 179.484 43.0625 175.484 41.375 170.859C39.7188 166.234 38.8906 161.406 38.8906 156.375C38.8906 151.312 39.7188 146.531 41.375 142.031C43.0625 137.531 45.4062 133.609 48.4062 130.266C51.4375 126.922 55.0312 124.297 59.1875 122.391C63.375 120.484 67.9062 119.531 72.7812 119.531C77.2812 119.531 81.1406 120.172 84.3594 121.453C87.6094 122.734 90.375 124.297 92.6562 126.141C94.9688 127.953 96.8125 129.688 98.1875 131.344H102.734V139.688H92.6562C90.5625 136.125 87.7812 133.312 84.3125 131.25C80.875 129.188 77.0156 128.188 72.7344 128.25C69.1406 128.25 65.8438 129.016 62.8438 130.547C59.8438 132.078 57.2656 134.141 55.1094 136.734C52.9844 139.328 51.3281 142.312 50.1406 145.688C48.9531 149.062 48.3594 152.625 48.3594 156.375C48.3594 160.531 49.0156 164.391 50.3281 167.953C51.6406 171.516 53.3125 174.406 55.3438 176.625C57.375 178.844 59.875 180.688 62.8438 182.156C65.8438 183.594 69.1562 184.312 72.7812 184.312C78.7812 184.312 83.7031 182.859 87.5469 179.953C91.3906 177.016 94.0781 172.453 95.6094 166.266H75.7344V158.203H105.781V192.281H97.0625Z" fill="#7B8400"/>
<path d="M165.125 120.938H188.188V129.047H182.141V192H170.141L137.094 133.078V183.938H144.406V192H121.344V183.938H127.906V129.047H121.156V120.844H140.281L172.719 179.203L173.094 176.953V129.047H165.125V120.938Z" fill="#7B8400"/>
<path d="M1.85938 1.9375H28.2969C31.5469 1.9375 34.6406 2.35938 37.5781 3.20312C40.5156 4.04688 43.25 5.23438 45.7812 6.76562C48.3125 8.29688 50.6094 10.1406 52.6719 12.2969C54.7344 14.4219 56.4844 16.7969 57.9219 19.4219C59.3906 22.0469 60.5156 24.875 61.2969 27.9062C62.0781 30.9062 62.4688 34.0312 62.4688 37.2812C62.4688 40.5938 62.0781 43.7656 61.2969 46.7969C60.5156 49.8281 59.3906 52.6719 57.9219 55.3281C56.4844 57.9844 54.7344 60.4062 52.6719 62.5938C50.6094 64.75 48.3125 66.6094 45.7812 68.1719C43.25 69.7031 40.5156 70.8906 37.5781 71.7344C34.6406 72.5781 31.5469 73 28.2969 73H1.85938V64.9375H8.60938V10.0469H1.85938V1.9375ZM17.7969 10.0469V64.9375H28.8594C32.1406 64.9375 35.2188 64.2188 38.0938 62.7812C41 61.3438 43.5312 59.3906 45.6875 56.9219C47.8438 54.4219 49.5469 51.5 50.7969 48.1562C52.0469 44.7812 52.6719 41.1562 52.6719 37.2812C52.6719 33.4688 52.0469 29.9062 50.7969 26.5938C49.5469 23.2812 47.8438 20.4062 45.6875 17.9688C43.5312 15.5 41 13.5625 38.0938 12.1562C35.2188 10.75 32.1406 10.0469 28.8594 10.0469H17.7969Z" fill="#B1B000"/>
<path d="M72.5469 1.9375H123.453V22.0469H113.844V10.0469H88.4844V32.7812H109.812V40.8438H88.4844V64.9375H113.844V52.9375H123.453V73H72.5469V64.9375H79.2969V10.0469H72.5469V1.9375Z" fill="#B1B000"/>
<path d="M169.25 21.25C169.25 18.5 168.75 16.4375 167.75 15.0625C166.75 13.6875 165.641 12.6406 164.422 11.9219C163.234 11.1719 161.922 10.6094 160.484 10.2344C159.047 9.82812 157.609 9.625 156.172 9.625C153.797 9.625 151.719 9.90625 149.938 10.4688C148.156 11 146.672 11.7344 145.484 12.6719C144.328 13.6094 143.453 14.7031 142.859 15.9531C142.266 17.2031 141.969 18.5156 141.969 19.8906C141.969 21.9531 142.328 23.625 143.047 24.9062C143.797 26.1562 144.734 27.1719 145.859 27.9531C146.984 28.7031 148.219 29.2969 149.562 29.7344C150.938 30.1719 152.25 30.6094 153.5 31.0469L162.969 34.1406C165.812 35.0469 168.312 36.0781 170.469 37.2344C172.656 38.3906 174.484 39.7656 175.953 41.3594C177.422 42.9219 178.531 44.7344 179.281 46.7969C180.062 48.8594 180.453 51.25 180.453 53.9688C180.453 56.9062 179.844 59.625 178.625 62.125C177.438 64.625 175.766 66.7969 173.609 68.6406C171.453 70.4844 168.875 71.9375 165.875 73C162.906 74.0312 159.641 74.5469 156.078 74.5469C152.422 74.5469 149.297 74.125 146.703 73.2812C144.109 72.4688 141.922 71.375 140.141 70C138.391 68.5938 136.984 67 135.922 65.2188C134.859 63.4375 134.031 61.6094 133.438 59.7344H129.875V51.6719H141.688C141.688 55.1406 142.047 57.5938 142.766 59.0312C143.516 60.4688 144.547 61.6719 145.859 62.6406C147.172 63.5781 148.734 64.2969 150.547 64.7969C152.359 65.2656 154.359 65.5 156.547 65.5C158.672 65.5 160.578 65.25 162.266 64.75C163.984 64.25 165.438 63.5312 166.625 62.5938C167.844 61.625 168.766 60.4688 169.391 59.125C170.047 57.75 170.375 56.2031 170.375 54.4844C170.375 52.5781 169.969 50.9688 169.156 49.6562C168.375 48.3125 167.359 47.1719 166.109 46.2344C164.859 45.2969 163.484 44.5312 161.984 43.9375C160.516 43.3438 159.094 42.8281 157.719 42.3906L147.453 39.4844C145.203 38.7969 143.141 37.9219 141.266 36.8594C139.422 35.7969 137.828 34.5 136.484 32.9688C135.172 31.4375 134.156 29.6562 133.438 27.625C132.719 25.5625 132.359 23.1875 132.359 20.5C132.359 17.7812 132.891 15.2344 133.953 12.8594C135.016 10.4844 136.578 8.40625 138.641 6.625C140.703 4.84375 143.219 3.45312 146.188 2.45312C149.188 1.42188 152.609 0.90625 156.453 0.90625C158.984 0.90625 161.312 1.20312 163.438 1.79688C165.594 2.39062 167.531 3.23438 169.25 4.32812C171 5.39062 172.531 6.6875 173.844 8.21875C175.188 9.71875 176.312 11.375 177.219 13.1875H180.734V21.25H169.25Z" fill="#B1B000"/>
<path d="M0.125 120.938H22.8125V129.047H16.0625V183.938H22.8125V192H0.125V183.938H6.875V129.047H0.125V120.938Z" fill="#B1B000"/>
<path d="M91.0625 192.281V178.031C89.875 180.5 88.3906 182.656 86.6094 184.5C84.8281 186.312 82.8438 187.812 80.6562 189C78.4688 190.188 76.125 191.078 73.625 191.672C71.1562 192.266 68.6406 192.562 66.0781 192.562C61.4531 192.562 57.1875 191.797 53.2812 190.266C49.375 188.703 45.8281 186.234 42.6406 182.859C39.4844 179.484 37.0625 175.484 35.375 170.859C33.7188 166.234 32.8906 161.406 32.8906 156.375C32.8906 151.312 33.7188 146.531 35.375 142.031C37.0625 137.531 39.4062 133.609 42.4062 130.266C45.4375 126.922 49.0312 124.297 53.1875 122.391C57.375 120.484 61.9062 119.531 66.7812 119.531C71.2812 119.531 75.1406 120.172 78.3594 121.453C81.6094 122.734 84.375 124.297 86.6562 126.141C88.9688 127.953 90.8125 129.688 92.1875 131.344H96.7344V139.688H86.6562C84.5625 136.125 81.7812 133.312 78.3125 131.25C74.875 129.188 71.0156 128.188 66.7344 128.25C63.1406 128.25 59.8438 129.016 56.8438 130.547C53.8438 132.078 51.2656 134.141 49.1094 136.734C46.9844 139.328 45.3281 142.312 44.1406 145.688C42.9531 149.062 42.3594 152.625 42.3594 156.375C42.3594 160.531 43.0156 164.391 44.3281 167.953C45.6406 171.516 47.3125 174.406 49.3438 176.625C51.375 178.844 53.875 180.688 56.8438 182.156C59.8438 183.594 63.1562 184.312 66.7812 184.312C72.7812 184.312 77.7031 182.859 81.5469 179.953C85.3906 177.016 88.0781 172.453 89.6094 166.266H69.7344V158.203H99.7812V192.281H91.0625Z" fill="#B1B000"/>
<path d="M159.125 120.938H182.188V129.047H176.141V192H164.141L131.094 133.078V183.938H138.406V192H115.344V183.938H121.906V129.047H115.156V120.844H134.281L166.719 179.203L167.094 176.953V129.047H159.125V120.938Z" fill="#B1B000"/>
</svg>
