<svg width="219" height="139" viewBox="0 0 219 139" fill="none" xmlns="http://www.w3.org/2000/svg">
<mask id="path-1-outside-1_96_68" maskUnits="userSpaceOnUse" x="0.199219" y="0.873047" width="219" height="138" fill="black">
<rect fill="white" x="0.199219" y="0.873047" width="219" height="138"/>
<path d="M105.686 3.68635C107.654 1.26861 111.346 1.26861 113.314 3.68635L114.543 5.19655C116.279 7.32903 119.426 7.62404 121.528 5.8513L123.732 3.99249C126.166 1.93935 129.88 2.70601 131.303 5.55527L131.506 5.96221C132.787 8.52976 135.986 9.45902 138.444 7.97787L141.771 5.97313C144.335 4.42825 147.657 5.86591 148.286 8.79228C148.863 11.4777 151.749 12.9675 154.272 11.8826L158.959 9.86778C161.492 8.77865 164.286 10.7355 164.129 13.4885C163.982 16.0497 166.417 17.9833 168.878 17.2607L174.506 15.6085C177.013 14.8726 179.314 17.2566 178.489 19.7356C177.715 22.0633 179.711 24.3725 182.126 23.9439L187.961 22.9085C190.467 22.4637 192.312 25.2016 190.96 27.3578C189.683 29.3938 191.261 32.0175 193.658 31.8447L198.997 31.4597C201.527 31.2772 202.95 34.3116 201.191 36.14C199.525 37.871 200.704 40.7562 203.105 40.8262L207.382 40.951C209.956 41.0261 210.977 44.3169 208.897 45.8354C206.928 47.2733 207.719 50.3783 210.137 50.6976L212.962 51.0707C215.592 51.4182 216.217 54.9425 213.867 56.1736C211.646 57.337 212.05 60.6317 214.487 61.2231L215.655 61.5066C218.349 62.1604 218.565 65.9078 215.965 66.8674C213.518 67.7704 213.518 71.2309 215.965 72.1339C218.565 73.0935 218.349 76.8409 215.655 77.4947L214.487 77.7782C212.05 78.3696 211.646 81.6643 213.867 82.8277C216.217 84.0588 215.592 87.5831 212.962 87.9306L210.137 88.3037C207.719 88.623 206.928 91.728 208.897 93.1659C210.977 94.6844 209.956 97.9752 207.382 98.0503L203.105 98.1751C200.704 98.2451 199.525 101.13 201.191 102.861C202.95 104.69 201.527 107.724 198.997 107.542L193.658 107.157C191.261 106.984 189.683 109.608 190.96 111.644C192.312 113.8 190.467 116.538 187.961 116.093L182.126 115.057C179.711 114.629 177.715 116.938 178.489 119.266C179.314 121.745 177.013 124.129 174.506 123.393L168.878 121.741C166.417 121.018 163.982 122.952 164.129 125.513C164.286 128.266 161.492 130.223 158.959 129.134L154.272 127.119C151.749 126.034 148.863 127.524 148.286 130.209C147.657 133.135 144.335 134.573 141.771 133.028L138.444 131.023C135.986 129.542 132.787 130.472 131.506 133.039L131.303 133.446C129.88 136.295 126.166 137.062 123.732 135.009L121.528 133.15C119.426 131.377 116.279 131.672 114.543 133.805L113.314 135.315C111.346 137.733 107.654 137.733 105.686 135.315L104.456 133.805C102.721 131.672 99.5735 131.377 97.4716 133.15L95.2676 135.009C92.8333 137.062 89.1193 136.295 87.6969 133.446L87.4937 133.039C86.212 130.472 83.0132 129.542 80.5553 131.023L77.2285 133.028C74.6648 134.573 71.3425 133.135 70.7136 130.209C70.1365 127.524 67.2505 126.034 64.7271 127.119L60.0405 129.134C57.5071 130.223 54.7131 128.266 54.8706 125.513C55.0172 122.952 52.5826 121.018 50.1211 121.741L44.493 123.393C41.9863 124.129 39.6856 121.745 40.51 119.266C41.2841 116.938 39.2884 114.629 36.8731 115.057L31.0385 116.093C28.5325 116.538 26.6869 113.8 28.0392 111.644C29.3162 109.608 27.7387 106.984 25.3417 107.157L20.0027 107.542C17.4722 107.724 16.0497 104.69 17.8086 102.861C19.4739 101.13 18.2954 98.2451 15.8944 98.1751L11.6173 98.0503C9.04333 97.9752 8.02264 94.6844 10.1024 93.1659C12.0718 91.728 11.28 88.623 8.8625 88.3037L6.0377 87.9306C3.40713 87.5831 2.78194 84.0588 5.13248 82.8277C7.35387 81.6643 6.94931 78.3696 4.51243 77.7782L3.34425 77.4947C0.650644 76.8409 0.434099 73.0935 3.03448 72.1339C5.48118 71.2309 5.48118 67.7704 3.03448 66.8674C0.434099 65.9078 0.650644 62.1604 3.34425 61.5066L4.51243 61.2231C6.94931 60.6317 7.35387 57.337 5.13248 56.1736C2.78194 54.9425 3.40713 51.4182 6.03769 51.0707L8.86251 50.6976C11.28 50.3783 12.0718 47.2733 10.1024 45.8354C8.02264 44.3169 9.04333 41.0261 11.6173 40.951L15.8944 40.8262C18.2954 40.7562 19.4739 37.871 17.8086 36.14C16.0497 34.3116 17.4722 31.2772 20.0027 31.4597L25.3417 31.8447C27.7387 32.0175 29.3162 29.3938 28.0392 27.3578C26.6869 25.2016 28.5325 22.4637 31.0385 22.9085L36.8731 23.9439C39.2884 24.3725 41.2841 22.0633 40.51 19.7356C39.6856 17.2566 41.9863 14.8726 44.493 15.6085L50.1211 17.2607C52.5826 17.9833 55.0172 16.0497 54.8706 13.4885C54.7131 10.7355 57.5071 8.77865 60.0405 9.86778L64.7271 11.8826C67.2505 12.9675 70.1365 11.4777 70.7136 8.79228C71.3425 5.86591 74.6648 4.42825 77.2285 5.97313L80.5553 7.97787C83.0132 9.45902 86.212 8.52977 87.4937 5.96222L87.6969 5.55527C89.1193 2.70601 92.8333 1.93935 95.2676 3.99249L97.4716 5.8513C99.5735 7.62404 102.721 7.32903 104.456 5.19655L105.686 3.68635Z"/>
<path d="M86.0911 59.2897L70.0422 78.9772H82.5403V74.5475H85.9856V82.0007H66.5442V78.0104L82.3645 58.3932H70.2883V62.8932H66.843V55.3522H86.0911V59.2897Z"/>
<path d="M88.6047 63.7897H94.5461V78.9772H97.2883V82.0007H88.6399V78.9772H91.2414V66.8132H88.6047V63.7897ZM90.6262 57.3385C90.6262 57.0339 90.6848 56.7467 90.802 56.4772C90.9309 56.196 91.095 55.9557 91.2942 55.7565C91.5051 55.5456 91.7512 55.3815 92.0325 55.2643C92.3137 55.1354 92.6125 55.071 92.9289 55.071C93.2336 55.071 93.5207 55.1354 93.7903 55.2643C94.0715 55.3815 94.3118 55.5456 94.511 55.7565C94.7219 55.9557 94.886 56.196 95.0032 56.4772C95.1321 56.7467 95.1965 57.0339 95.1965 57.3385C95.1965 57.655 95.1321 57.9538 95.0032 58.235C94.886 58.5163 94.7219 58.7682 94.511 58.9909C94.3118 59.2018 94.0715 59.3717 93.7903 59.5007C93.5207 59.6178 93.2336 59.6764 92.9289 59.6764C92.6125 59.6764 92.3137 59.6178 92.0325 59.5007C91.7512 59.3717 91.5051 59.2018 91.2942 58.9909C91.095 58.7682 90.9309 58.5163 90.802 58.235C90.6848 57.9538 90.6262 57.655 90.6262 57.3385Z"/>
<path d="M112.3 78.9772H114.866V70.6628C114.866 69.2682 114.509 68.2135 113.794 67.4987C113.091 66.7721 112.077 66.4089 110.753 66.4089C109.991 66.4089 109.224 66.5905 108.45 66.9538C107.677 67.3171 106.945 67.7682 106.253 68.3073V78.9772H108.82V82.0007H100.312V78.9772H102.843V66.8132H100.312V63.7897H106.113V65.9342H106.148C106.534 65.5944 106.945 65.2721 107.378 64.9675C107.823 64.6628 108.286 64.3991 108.767 64.1764C109.247 63.9538 109.745 63.778 110.261 63.6491C110.788 63.5202 111.339 63.4557 111.913 63.4557C112.886 63.4557 113.765 63.5905 114.55 63.86C115.335 64.1296 116.003 64.5397 116.554 65.0905C117.105 65.6413 117.527 66.3503 117.82 67.2175C118.124 68.0729 118.277 69.0866 118.277 70.2585V78.9772H120.808V82.0007H112.3V78.9772Z"/>
<path d="M127.417 73.3171C127.417 73.8327 127.452 74.3073 127.523 74.7409C127.605 75.1628 127.716 75.5671 127.857 75.9538C128.29 77.1257 128.982 78.0104 129.931 78.6081C130.892 79.194 131.976 79.487 133.183 79.487C134.132 79.487 135.052 79.3581 135.943 79.1003C136.845 78.8307 137.788 78.4147 138.773 77.8522L140.091 80.0846C138.896 80.905 137.695 81.5143 136.488 81.9128C135.281 82.3112 134.027 82.5104 132.726 82.5104C131.495 82.5104 130.353 82.3053 129.298 81.8952C128.255 81.485 127.353 80.8757 126.591 80.0671C125.841 79.2585 125.249 78.2507 124.816 77.0436C124.394 75.8366 124.183 74.4303 124.183 72.8249C124.183 71.5241 124.364 70.2995 124.728 69.151C125.091 67.9909 125.63 66.9831 126.345 66.1276C127.072 65.2604 127.968 64.5749 129.034 64.071C130.101 63.5671 131.343 63.3151 132.761 63.3151C134.132 63.3151 135.275 63.526 136.189 63.9479C137.114 64.3581 137.864 64.9089 138.439 65.6003C139.025 66.28 139.464 67.0592 139.757 67.9382C140.062 68.8171 140.273 69.7135 140.39 70.6276C140.448 71.0729 140.484 71.5241 140.495 71.9811C140.519 72.4382 140.531 72.8835 140.531 73.3171H127.417ZM132.532 66.0573C131.771 66.0573 131.103 66.1686 130.529 66.3913C129.966 66.6022 129.486 66.9128 129.087 67.3229C128.689 67.7214 128.366 68.2135 128.12 68.7995C127.886 69.3854 127.71 70.0417 127.593 70.7682H137.032C136.986 70.0885 136.874 69.4616 136.698 68.8874C136.534 68.3132 136.277 67.8151 135.925 67.3932C135.573 66.9714 135.122 66.6432 134.572 66.4089C134.021 66.1745 133.341 66.0573 132.532 66.0573Z"/>
<path d="M155.507 68.6764C155.507 68.1842 155.39 67.7682 155.156 67.4284C154.933 67.0768 154.64 66.7956 154.277 66.5846C153.913 66.362 153.509 66.2038 153.064 66.11C152.618 66.0046 152.185 65.9518 151.763 65.9518C151.294 65.9518 150.861 66.0046 150.462 66.11C150.075 66.2155 149.741 66.3678 149.46 66.5671C149.179 66.7663 148.956 67.0124 148.792 67.3053C148.64 67.5866 148.564 67.903 148.564 68.2546C148.564 68.8639 148.745 69.3503 149.109 69.7135C149.484 70.0651 150.105 70.3932 150.972 70.6979L154.47 71.9284C155.97 72.4323 157.066 73.1178 157.757 73.985C158.448 74.8522 158.794 75.8893 158.794 77.0964C158.794 77.905 158.63 78.6491 158.302 79.3288C157.986 79.9967 157.529 80.571 156.931 81.0514C156.345 81.5202 155.636 81.8835 154.804 82.1413C153.972 82.4108 153.046 82.5456 152.027 82.5456C150.609 82.5456 149.454 82.3171 148.564 81.86C147.673 81.403 146.988 80.7995 146.507 80.0495H144.679V77.026H148.318C148.318 77.53 148.423 77.9635 148.634 78.3268C148.857 78.6784 149.144 78.9655 149.495 79.1882C149.859 79.4108 150.263 79.5749 150.708 79.6803C151.165 79.7858 151.628 79.8385 152.097 79.8385C152.554 79.8385 152.993 79.7858 153.415 79.6803C153.837 79.5632 154.206 79.3991 154.523 79.1882C154.851 78.9655 155.109 78.7018 155.296 78.3971C155.484 78.0925 155.577 77.7467 155.577 77.36C155.577 76.7741 155.384 76.276 154.997 75.8659C154.622 75.4557 153.978 75.0866 153.064 74.7585L149.583 73.4577C148.165 72.9538 147.111 72.3151 146.419 71.5417C145.739 70.7565 145.4 69.778 145.4 68.6061C145.4 67.8327 145.54 67.1178 145.822 66.4616C146.114 65.8053 146.531 65.2428 147.07 64.7741C147.62 64.2936 148.288 63.9186 149.073 63.6491C149.859 63.3796 150.755 63.2448 151.763 63.2448C153.064 63.2448 154.154 63.4264 155.032 63.7897C155.911 64.153 156.702 64.7741 157.406 65.653H159.111V68.6764H155.507Z"/>
</mask>
<path d="M105.686 3.68635C107.654 1.26861 111.346 1.26861 113.314 3.68635L114.543 5.19655C116.279 7.32903 119.426 7.62404 121.528 5.8513L123.732 3.99249C126.166 1.93935 129.88 2.70601 131.303 5.55527L131.506 5.96221C132.787 8.52976 135.986 9.45902 138.444 7.97787L141.771 5.97313C144.335 4.42825 147.657 5.86591 148.286 8.79228C148.863 11.4777 151.749 12.9675 154.272 11.8826L158.959 9.86778C161.492 8.77865 164.286 10.7355 164.129 13.4885C163.982 16.0497 166.417 17.9833 168.878 17.2607L174.506 15.6085C177.013 14.8726 179.314 17.2566 178.489 19.7356C177.715 22.0633 179.711 24.3725 182.126 23.9439L187.961 22.9085C190.467 22.4637 192.312 25.2016 190.96 27.3578C189.683 29.3938 191.261 32.0175 193.658 31.8447L198.997 31.4597C201.527 31.2772 202.95 34.3116 201.191 36.14C199.525 37.871 200.704 40.7562 203.105 40.8262L207.382 40.951C209.956 41.0261 210.977 44.3169 208.897 45.8354C206.928 47.2733 207.719 50.3783 210.137 50.6976L212.962 51.0707C215.592 51.4182 216.217 54.9425 213.867 56.1736C211.646 57.337 212.05 60.6317 214.487 61.2231L215.655 61.5066C218.349 62.1604 218.565 65.9078 215.965 66.8674C213.518 67.7704 213.518 71.2309 215.965 72.1339C218.565 73.0935 218.349 76.8409 215.655 77.4947L214.487 77.7782C212.05 78.3696 211.646 81.6643 213.867 82.8277C216.217 84.0588 215.592 87.5831 212.962 87.9306L210.137 88.3037C207.719 88.623 206.928 91.728 208.897 93.1659C210.977 94.6844 209.956 97.9752 207.382 98.0503L203.105 98.1751C200.704 98.2451 199.525 101.13 201.191 102.861C202.95 104.69 201.527 107.724 198.997 107.542L193.658 107.157C191.261 106.984 189.683 109.608 190.96 111.644C192.312 113.8 190.467 116.538 187.961 116.093L182.126 115.057C179.711 114.629 177.715 116.938 178.489 119.266C179.314 121.745 177.013 124.129 174.506 123.393L168.878 121.741C166.417 121.018 163.982 122.952 164.129 125.513C164.286 128.266 161.492 130.223 158.959 129.134L154.272 127.119C151.749 126.034 148.863 127.524 148.286 130.209C147.657 133.135 144.335 134.573 141.771 133.028L138.444 131.023C135.986 129.542 132.787 130.472 131.506 133.039L131.303 133.446C129.88 136.295 126.166 137.062 123.732 135.009L121.528 133.15C119.426 131.377 116.279 131.672 114.543 133.805L113.314 135.315C111.346 137.733 107.654 137.733 105.686 135.315L104.456 133.805C102.721 131.672 99.5735 131.377 97.4716 133.15L95.2676 135.009C92.8333 137.062 89.1193 136.295 87.6969 133.446L87.4937 133.039C86.212 130.472 83.0132 129.542 80.5553 131.023L77.2285 133.028C74.6648 134.573 71.3425 133.135 70.7136 130.209C70.1365 127.524 67.2505 126.034 64.7271 127.119L60.0405 129.134C57.5071 130.223 54.7131 128.266 54.8706 125.513C55.0172 122.952 52.5826 121.018 50.1211 121.741L44.493 123.393C41.9863 124.129 39.6856 121.745 40.51 119.266C41.2841 116.938 39.2884 114.629 36.8731 115.057L31.0385 116.093C28.5325 116.538 26.6869 113.8 28.0392 111.644C29.3162 109.608 27.7387 106.984 25.3417 107.157L20.0027 107.542C17.4722 107.724 16.0497 104.69 17.8086 102.861C19.4739 101.13 18.2954 98.2451 15.8944 98.1751L11.6173 98.0503C9.04333 97.9752 8.02264 94.6844 10.1024 93.1659C12.0718 91.728 11.28 88.623 8.8625 88.3037L6.0377 87.9306C3.40713 87.5831 2.78194 84.0588 5.13248 82.8277C7.35387 81.6643 6.94931 78.3696 4.51243 77.7782L3.34425 77.4947C0.650644 76.8409 0.434099 73.0935 3.03448 72.1339C5.48118 71.2309 5.48118 67.7704 3.03448 66.8674C0.434099 65.9078 0.650644 62.1604 3.34425 61.5066L4.51243 61.2231C6.94931 60.6317 7.35387 57.337 5.13248 56.1736C2.78194 54.9425 3.40713 51.4182 6.03769 51.0707L8.86251 50.6976C11.28 50.3783 12.0718 47.2733 10.1024 45.8354C8.02264 44.3169 9.04333 41.0261 11.6173 40.951L15.8944 40.8262C18.2954 40.7562 19.4739 37.871 17.8086 36.14C16.0497 34.3116 17.4722 31.2772 20.0027 31.4597L25.3417 31.8447C27.7387 32.0175 29.3162 29.3938 28.0392 27.3578C26.6869 25.2016 28.5325 22.4637 31.0385 22.9085L36.8731 23.9439C39.2884 24.3725 41.2841 22.0633 40.51 19.7356C39.6856 17.2566 41.9863 14.8726 44.493 15.6085L50.1211 17.2607C52.5826 17.9833 55.0172 16.0497 54.8706 13.4885C54.7131 10.7355 57.5071 8.77865 60.0405 9.86778L64.7271 11.8826C67.2505 12.9675 70.1365 11.4777 70.7136 8.79228C71.3425 5.86591 74.6648 4.42825 77.2285 5.97313L80.5553 7.97787C83.0132 9.45902 86.212 8.52977 87.4937 5.96222L87.6969 5.55527C89.1193 2.70601 92.8333 1.93935 95.2676 3.99249L97.4716 5.8513C99.5735 7.62404 102.721 7.32903 104.456 5.19655L105.686 3.68635Z" fill="#F1D002"/>
<path d="M86.0911 59.2897L70.0422 78.9772H82.5403V74.5475H85.9856V82.0007H66.5442V78.0104L82.3645 58.3932H70.2883V62.8932H66.843V55.3522H86.0911V59.2897Z" fill="black"/>
<path d="M88.6047 63.7897H94.5461V78.9772H97.2883V82.0007H88.6399V78.9772H91.2414V66.8132H88.6047V63.7897ZM90.6262 57.3385C90.6262 57.0339 90.6848 56.7467 90.802 56.4772C90.9309 56.196 91.095 55.9557 91.2942 55.7565C91.5051 55.5456 91.7512 55.3815 92.0325 55.2643C92.3137 55.1354 92.6125 55.071 92.9289 55.071C93.2336 55.071 93.5207 55.1354 93.7903 55.2643C94.0715 55.3815 94.3118 55.5456 94.511 55.7565C94.7219 55.9557 94.886 56.196 95.0032 56.4772C95.1321 56.7467 95.1965 57.0339 95.1965 57.3385C95.1965 57.655 95.1321 57.9538 95.0032 58.235C94.886 58.5163 94.7219 58.7682 94.511 58.9909C94.3118 59.2018 94.0715 59.3717 93.7903 59.5007C93.5207 59.6178 93.2336 59.6764 92.9289 59.6764C92.6125 59.6764 92.3137 59.6178 92.0325 59.5007C91.7512 59.3717 91.5051 59.2018 91.2942 58.9909C91.095 58.7682 90.9309 58.5163 90.802 58.235C90.6848 57.9538 90.6262 57.655 90.6262 57.3385Z" fill="black"/>
<path d="M112.3 78.9772H114.866V70.6628C114.866 69.2682 114.509 68.2135 113.794 67.4987C113.091 66.7721 112.077 66.4089 110.753 66.4089C109.991 66.4089 109.224 66.5905 108.45 66.9538C107.677 67.3171 106.945 67.7682 106.253 68.3073V78.9772H108.82V82.0007H100.312V78.9772H102.843V66.8132H100.312V63.7897H106.113V65.9342H106.148C106.534 65.5944 106.945 65.2721 107.378 64.9675C107.823 64.6628 108.286 64.3991 108.767 64.1764C109.247 63.9538 109.745 63.778 110.261 63.6491C110.788 63.5202 111.339 63.4557 111.913 63.4557C112.886 63.4557 113.765 63.5905 114.55 63.86C115.335 64.1296 116.003 64.5397 116.554 65.0905C117.105 65.6413 117.527 66.3503 117.82 67.2175C118.124 68.0729 118.277 69.0866 118.277 70.2585V78.9772H120.808V82.0007H112.3V78.9772Z" fill="black"/>
<path d="M127.417 73.3171C127.417 73.8327 127.452 74.3073 127.523 74.7409C127.605 75.1628 127.716 75.5671 127.857 75.9538C128.29 77.1257 128.982 78.0104 129.931 78.6081C130.892 79.194 131.976 79.487 133.183 79.487C134.132 79.487 135.052 79.3581 135.943 79.1003C136.845 78.8307 137.788 78.4147 138.773 77.8522L140.091 80.0846C138.896 80.905 137.695 81.5143 136.488 81.9128C135.281 82.3112 134.027 82.5104 132.726 82.5104C131.495 82.5104 130.353 82.3053 129.298 81.8952C128.255 81.485 127.353 80.8757 126.591 80.0671C125.841 79.2585 125.249 78.2507 124.816 77.0436C124.394 75.8366 124.183 74.4303 124.183 72.8249C124.183 71.5241 124.364 70.2995 124.728 69.151C125.091 67.9909 125.63 66.9831 126.345 66.1276C127.072 65.2604 127.968 64.5749 129.034 64.071C130.101 63.5671 131.343 63.3151 132.761 63.3151C134.132 63.3151 135.275 63.526 136.189 63.9479C137.114 64.3581 137.864 64.9089 138.439 65.6003C139.025 66.28 139.464 67.0592 139.757 67.9382C140.062 68.8171 140.273 69.7135 140.39 70.6276C140.448 71.0729 140.484 71.5241 140.495 71.9811C140.519 72.4382 140.531 72.8835 140.531 73.3171H127.417ZM132.532 66.0573C131.771 66.0573 131.103 66.1686 130.529 66.3913C129.966 66.6022 129.486 66.9128 129.087 67.3229C128.689 67.7214 128.366 68.2135 128.12 68.7995C127.886 69.3854 127.71 70.0417 127.593 70.7682H137.032C136.986 70.0885 136.874 69.4616 136.698 68.8874C136.534 68.3132 136.277 67.8151 135.925 67.3932C135.573 66.9714 135.122 66.6432 134.572 66.4089C134.021 66.1745 133.341 66.0573 132.532 66.0573Z" fill="black"/>
<path d="M155.507 68.6764C155.507 68.1842 155.39 67.7682 155.156 67.4284C154.933 67.0768 154.64 66.7956 154.277 66.5846C153.913 66.362 153.509 66.2038 153.064 66.11C152.618 66.0046 152.185 65.9518 151.763 65.9518C151.294 65.9518 150.861 66.0046 150.462 66.11C150.075 66.2155 149.741 66.3678 149.46 66.5671C149.179 66.7663 148.956 67.0124 148.792 67.3053C148.64 67.5866 148.564 67.903 148.564 68.2546C148.564 68.8639 148.745 69.3503 149.109 69.7135C149.484 70.0651 150.105 70.3932 150.972 70.6979L154.47 71.9284C155.97 72.4323 157.066 73.1178 157.757 73.985C158.448 74.8522 158.794 75.8893 158.794 77.0964C158.794 77.905 158.63 78.6491 158.302 79.3288C157.986 79.9967 157.529 80.571 156.931 81.0514C156.345 81.5202 155.636 81.8835 154.804 82.1413C153.972 82.4108 153.046 82.5456 152.027 82.5456C150.609 82.5456 149.454 82.3171 148.564 81.86C147.673 81.403 146.988 80.7995 146.507 80.0495H144.679V77.026H148.318C148.318 77.53 148.423 77.9635 148.634 78.3268C148.857 78.6784 149.144 78.9655 149.495 79.1882C149.859 79.4108 150.263 79.5749 150.708 79.6803C151.165 79.7858 151.628 79.8385 152.097 79.8385C152.554 79.8385 152.993 79.7858 153.415 79.6803C153.837 79.5632 154.206 79.3991 154.523 79.1882C154.851 78.9655 155.109 78.7018 155.296 78.3971C155.484 78.0925 155.577 77.7467 155.577 77.36C155.577 76.7741 155.384 76.276 154.997 75.8659C154.622 75.4557 153.978 75.0866 153.064 74.7585L149.583 73.4577C148.165 72.9538 147.111 72.3151 146.419 71.5417C145.739 70.7565 145.4 69.778 145.4 68.6061C145.4 67.8327 145.54 67.1178 145.822 66.4616C146.114 65.8053 146.531 65.2428 147.07 64.7741C147.62 64.2936 148.288 63.9186 149.073 63.6491C149.859 63.3796 150.755 63.2448 151.763 63.2448C153.064 63.2448 154.154 63.4264 155.032 63.7897C155.911 64.153 156.702 64.7741 157.406 65.653H159.111V68.6764H155.507Z" fill="black"/>
<path d="M105.686 3.68635C107.654 1.26861 111.346 1.26861 113.314 3.68635L114.543 5.19655C116.279 7.32903 119.426 7.62404 121.528 5.8513L123.732 3.99249C126.166 1.93935 129.88 2.70601 131.303 5.55527L131.506 5.96221C132.787 8.52976 135.986 9.45902 138.444 7.97787L141.771 5.97313C144.335 4.42825 147.657 5.86591 148.286 8.79228C148.863 11.4777 151.749 12.9675 154.272 11.8826L158.959 9.86778C161.492 8.77865 164.286 10.7355 164.129 13.4885C163.982 16.0497 166.417 17.9833 168.878 17.2607L174.506 15.6085C177.013 14.8726 179.314 17.2566 178.489 19.7356C177.715 22.0633 179.711 24.3725 182.126 23.9439L187.961 22.9085C190.467 22.4637 192.312 25.2016 190.96 27.3578C189.683 29.3938 191.261 32.0175 193.658 31.8447L198.997 31.4597C201.527 31.2772 202.95 34.3116 201.191 36.14C199.525 37.871 200.704 40.7562 203.105 40.8262L207.382 40.951C209.956 41.0261 210.977 44.3169 208.897 45.8354C206.928 47.2733 207.719 50.3783 210.137 50.6976L212.962 51.0707C215.592 51.4182 216.217 54.9425 213.867 56.1736C211.646 57.337 212.05 60.6317 214.487 61.2231L215.655 61.5066C218.349 62.1604 218.565 65.9078 215.965 66.8674C213.518 67.7704 213.518 71.2309 215.965 72.1339C218.565 73.0935 218.349 76.8409 215.655 77.4947L214.487 77.7782C212.05 78.3696 211.646 81.6643 213.867 82.8277C216.217 84.0588 215.592 87.5831 212.962 87.9306L210.137 88.3037C207.719 88.623 206.928 91.728 208.897 93.1659C210.977 94.6844 209.956 97.9752 207.382 98.0503L203.105 98.1751C200.704 98.2451 199.525 101.13 201.191 102.861C202.95 104.69 201.527 107.724 198.997 107.542L193.658 107.157C191.261 106.984 189.683 109.608 190.96 111.644C192.312 113.8 190.467 116.538 187.961 116.093L182.126 115.057C179.711 114.629 177.715 116.938 178.489 119.266C179.314 121.745 177.013 124.129 174.506 123.393L168.878 121.741C166.417 121.018 163.982 122.952 164.129 125.513C164.286 128.266 161.492 130.223 158.959 129.134L154.272 127.119C151.749 126.034 148.863 127.524 148.286 130.209C147.657 133.135 144.335 134.573 141.771 133.028L138.444 131.023C135.986 129.542 132.787 130.472 131.506 133.039L131.303 133.446C129.88 136.295 126.166 137.062 123.732 135.009L121.528 133.15C119.426 131.377 116.279 131.672 114.543 133.805L113.314 135.315C111.346 137.733 107.654 137.733 105.686 135.315L104.456 133.805C102.721 131.672 99.5735 131.377 97.4716 133.15L95.2676 135.009C92.8333 137.062 89.1193 136.295 87.6969 133.446L87.4937 133.039C86.212 130.472 83.0132 129.542 80.5553 131.023L77.2285 133.028C74.6648 134.573 71.3425 133.135 70.7136 130.209C70.1365 127.524 67.2505 126.034 64.7271 127.119L60.0405 129.134C57.5071 130.223 54.7131 128.266 54.8706 125.513C55.0172 122.952 52.5826 121.018 50.1211 121.741L44.493 123.393C41.9863 124.129 39.6856 121.745 40.51 119.266C41.2841 116.938 39.2884 114.629 36.8731 115.057L31.0385 116.093C28.5325 116.538 26.6869 113.8 28.0392 111.644C29.3162 109.608 27.7387 106.984 25.3417 107.157L20.0027 107.542C17.4722 107.724 16.0497 104.69 17.8086 102.861C19.4739 101.13 18.2954 98.2451 15.8944 98.1751L11.6173 98.0503C9.04333 97.9752 8.02264 94.6844 10.1024 93.1659C12.0718 91.728 11.28 88.623 8.8625 88.3037L6.0377 87.9306C3.40713 87.5831 2.78194 84.0588 5.13248 82.8277C7.35387 81.6643 6.94931 78.3696 4.51243 77.7782L3.34425 77.4947C0.650644 76.8409 0.434099 73.0935 3.03448 72.1339C5.48118 71.2309 5.48118 67.7704 3.03448 66.8674C0.434099 65.9078 0.650644 62.1604 3.34425 61.5066L4.51243 61.2231C6.94931 60.6317 7.35387 57.337 5.13248 56.1736C2.78194 54.9425 3.40713 51.4182 6.03769 51.0707L8.86251 50.6976C11.28 50.3783 12.0718 47.2733 10.1024 45.8354C8.02264 44.3169 9.04333 41.0261 11.6173 40.951L15.8944 40.8262C18.2954 40.7562 19.4739 37.871 17.8086 36.14C16.0497 34.3116 17.4722 31.2772 20.0027 31.4597L25.3417 31.8447C27.7387 32.0175 29.3162 29.3938 28.0392 27.3578C26.6869 25.2016 28.5325 22.4637 31.0385 22.9085L36.8731 23.9439C39.2884 24.3725 41.2841 22.0633 40.51 19.7356C39.6856 17.2566 41.9863 14.8726 44.493 15.6085L50.1211 17.2607C52.5826 17.9833 55.0172 16.0497 54.8706 13.4885C54.7131 10.7355 57.5071 8.77865 60.0405 9.86778L64.7271 11.8826C67.2505 12.9675 70.1365 11.4777 70.7136 8.79228C71.3425 5.86591 74.6648 4.42825 77.2285 5.97313L80.5553 7.97787C83.0132 9.45902 86.212 8.52977 87.4937 5.96222L87.6969 5.55527C89.1193 2.70601 92.8333 1.93935 95.2676 3.99249L97.4716 5.8513C99.5735 7.62404 102.721 7.32903 104.456 5.19655L105.686 3.68635Z" stroke="#DE142E" stroke-width="2" mask="url(#path-1-outside-1_96_68)"/>
<path d="M86.0911 59.2897L70.0422 78.9772H82.5403V74.5475H85.9856V82.0007H66.5442V78.0104L82.3645 58.3932H70.2883V62.8932H66.843V55.3522H86.0911V59.2897Z" stroke="#DE142E" stroke-width="2" mask="url(#path-1-outside-1_96_68)"/>
<path d="M88.6047 63.7897H94.5461V78.9772H97.2883V82.0007H88.6399V78.9772H91.2414V66.8132H88.6047V63.7897ZM90.6262 57.3385C90.6262 57.0339 90.6848 56.7467 90.802 56.4772C90.9309 56.196 91.095 55.9557 91.2942 55.7565C91.5051 55.5456 91.7512 55.3815 92.0325 55.2643C92.3137 55.1354 92.6125 55.071 92.9289 55.071C93.2336 55.071 93.5207 55.1354 93.7903 55.2643C94.0715 55.3815 94.3118 55.5456 94.511 55.7565C94.7219 55.9557 94.886 56.196 95.0032 56.4772C95.1321 56.7467 95.1965 57.0339 95.1965 57.3385C95.1965 57.655 95.1321 57.9538 95.0032 58.235C94.886 58.5163 94.7219 58.7682 94.511 58.9909C94.3118 59.2018 94.0715 59.3717 93.7903 59.5007C93.5207 59.6178 93.2336 59.6764 92.9289 59.6764C92.6125 59.6764 92.3137 59.6178 92.0325 59.5007C91.7512 59.3717 91.5051 59.2018 91.2942 58.9909C91.095 58.7682 90.9309 58.5163 90.802 58.235C90.6848 57.9538 90.6262 57.655 90.6262 57.3385Z" stroke="#DE142E" stroke-width="2" mask="url(#path-1-outside-1_96_68)"/>
<path d="M112.3 78.9772H114.866V70.6628C114.866 69.2682 114.509 68.2135 113.794 67.4987C113.091 66.7721 112.077 66.4089 110.753 66.4089C109.991 66.4089 109.224 66.5905 108.45 66.9538C107.677 67.3171 106.945 67.7682 106.253 68.3073V78.9772H108.82V82.0007H100.312V78.9772H102.843V66.8132H100.312V63.7897H106.113V65.9342H106.148C106.534 65.5944 106.945 65.2721 107.378 64.9675C107.823 64.6628 108.286 64.3991 108.767 64.1764C109.247 63.9538 109.745 63.778 110.261 63.6491C110.788 63.5202 111.339 63.4557 111.913 63.4557C112.886 63.4557 113.765 63.5905 114.55 63.86C115.335 64.1296 116.003 64.5397 116.554 65.0905C117.105 65.6413 117.527 66.3503 117.82 67.2175C118.124 68.0729 118.277 69.0866 118.277 70.2585V78.9772H120.808V82.0007H112.3V78.9772Z" stroke="#DE142E" stroke-width="2" mask="url(#path-1-outside-1_96_68)"/>
<path d="M127.417 73.3171C127.417 73.8327 127.452 74.3073 127.523 74.7409C127.605 75.1628 127.716 75.5671 127.857 75.9538C128.29 77.1257 128.982 78.0104 129.931 78.6081C130.892 79.194 131.976 79.487 133.183 79.487C134.132 79.487 135.052 79.3581 135.943 79.1003C136.845 78.8307 137.788 78.4147 138.773 77.8522L140.091 80.0846C138.896 80.905 137.695 81.5143 136.488 81.9128C135.281 82.3112 134.027 82.5104 132.726 82.5104C131.495 82.5104 130.353 82.3053 129.298 81.8952C128.255 81.485 127.353 80.8757 126.591 80.0671C125.841 79.2585 125.249 78.2507 124.816 77.0436C124.394 75.8366 124.183 74.4303 124.183 72.8249C124.183 71.5241 124.364 70.2995 124.728 69.151C125.091 67.9909 125.63 66.9831 126.345 66.1276C127.072 65.2604 127.968 64.5749 129.034 64.071C130.101 63.5671 131.343 63.3151 132.761 63.3151C134.132 63.3151 135.275 63.526 136.189 63.9479C137.114 64.3581 137.864 64.9089 138.439 65.6003C139.025 66.28 139.464 67.0592 139.757 67.9382C140.062 68.8171 140.273 69.7135 140.39 70.6276C140.448 71.0729 140.484 71.5241 140.495 71.9811C140.519 72.4382 140.531 72.8835 140.531 73.3171H127.417ZM132.532 66.0573C131.771 66.0573 131.103 66.1686 130.529 66.3913C129.966 66.6022 129.486 66.9128 129.087 67.3229C128.689 67.7214 128.366 68.2135 128.12 68.7995C127.886 69.3854 127.71 70.0417 127.593 70.7682H137.032C136.986 70.0885 136.874 69.4616 136.698 68.8874C136.534 68.3132 136.277 67.8151 135.925 67.3932C135.573 66.9714 135.122 66.6432 134.572 66.4089C134.021 66.1745 133.341 66.0573 132.532 66.0573Z" stroke="#DE142E" stroke-width="2" mask="url(#path-1-outside-1_96_68)"/>
<path d="M155.507 68.6764C155.507 68.1842 155.39 67.7682 155.156 67.4284C154.933 67.0768 154.64 66.7956 154.277 66.5846C153.913 66.362 153.509 66.2038 153.064 66.11C152.618 66.0046 152.185 65.9518 151.763 65.9518C151.294 65.9518 150.861 66.0046 150.462 66.11C150.075 66.2155 149.741 66.3678 149.46 66.5671C149.179 66.7663 148.956 67.0124 148.792 67.3053C148.64 67.5866 148.564 67.903 148.564 68.2546C148.564 68.8639 148.745 69.3503 149.109 69.7135C149.484 70.0651 150.105 70.3932 150.972 70.6979L154.47 71.9284C155.97 72.4323 157.066 73.1178 157.757 73.985C158.448 74.8522 158.794 75.8893 158.794 77.0964C158.794 77.905 158.63 78.6491 158.302 79.3288C157.986 79.9967 157.529 80.571 156.931 81.0514C156.345 81.5202 155.636 81.8835 154.804 82.1413C153.972 82.4108 153.046 82.5456 152.027 82.5456C150.609 82.5456 149.454 82.3171 148.564 81.86C147.673 81.403 146.988 80.7995 146.507 80.0495H144.679V77.026H148.318C148.318 77.53 148.423 77.9635 148.634 78.3268C148.857 78.6784 149.144 78.9655 149.495 79.1882C149.859 79.4108 150.263 79.5749 150.708 79.6803C151.165 79.7858 151.628 79.8385 152.097 79.8385C152.554 79.8385 152.993 79.7858 153.415 79.6803C153.837 79.5632 154.206 79.3991 154.523 79.1882C154.851 78.9655 155.109 78.7018 155.296 78.3971C155.484 78.0925 155.577 77.7467 155.577 77.36C155.577 76.7741 155.384 76.276 154.997 75.8659C154.622 75.4557 153.978 75.0866 153.064 74.7585L149.583 73.4577C148.165 72.9538 147.111 72.3151 146.419 71.5417C145.739 70.7565 145.4 69.778 145.4 68.6061C145.4 67.8327 145.54 67.1178 145.822 66.4616C146.114 65.8053 146.531 65.2428 147.07 64.7741C147.62 64.2936 148.288 63.9186 149.073 63.6491C149.859 63.3796 150.755 63.2448 151.763 63.2448C153.064 63.2448 154.154 63.4264 155.032 63.7897C155.911 64.153 156.702 64.7741 157.406 65.653H159.111V68.6764H155.507Z" stroke="#DE142E" stroke-width="2" mask="url(#path-1-outside-1_96_68)"/>
</svg>
